<svg xmlns="http://www.w3.org/2000/svg" fill="none" viewBox="0 0 1440 834">
    <mask id="b" width="1440" height="834" x="0" y="0" maskUnits="userSpaceOnUse" style="mask-type:alpha">
        <path fill="url(#a)" d="M0 0h1440v834H0z"/>
    </mask>
    <g mask="url(#b)">
        <g opacity=".3">
            <g stroke="#62519C" stroke-linecap="round" stroke-miterlimit="10" clip-path="url(#c)">
                <path d="M520.493 837.248a1.782 1.782 0 0 0 .004 2.52l54.011 54.011c9.05 9.05 9.076 23.692.064 32.704s-23.653 8.985-32.703-.064l-54.012-54.012c-18.794-18.795-18.851-49.207-.131-67.927 18.719-18.719 49.132-18.663 67.926.132l36.366 36.366c.696.695 1.825.7 2.52.004a1.783 1.783 0 0 0-.003-2.52l-54.012-54.012c-9.05-9.049-9.076-23.691-.064-32.703 9.012-9.012 23.654-8.986 32.704.064l54.011 54.012c18.795 18.794 18.851 49.207.132 67.926-18.72 18.72-49.132 18.663-67.927-.131l-36.366-36.367a1.783 1.783 0 0 0-2.52-.003Zm105.785-104.742a1.786 1.786 0 0 0 2.525 2.524l36.366-36.366c18.793-18.793 49.278-18.78 68.089.031 18.81 18.811 18.824 49.296.03 68.089l-54.011 54.011c-9.048 9.049-23.726 9.043-32.783-.014-9.057-9.058-9.063-23.735-.014-32.783l54.011-54.011a1.786 1.786 0 0 0-2.525-2.525L661.6 767.828c-18.793 18.793-49.278 18.78-68.089-.031s-18.824-49.296-.031-68.089l54.012-54.011c9.048-9.049 23.725-9.042 32.782.015 9.057 9.057 9.063 23.734.015 32.782l-54.011 54.012Z"/>
            </g>
            <g stroke="#62519C" stroke-linecap="round" stroke-miterlimit="10" clip-path="url(#d)">
                <path d="M733.093 624.649a1.783 1.783 0 0 0 .003 2.52l54.012 54.011c9.05 9.05 9.076 23.692.064 32.704s-23.654 8.986-32.703-.064l-54.012-54.012c-18.795-18.795-18.851-49.207-.132-67.926 18.72-18.72 49.132-18.663 67.927.131l36.366 36.366c.695.696 1.824.7 2.52.004a1.782 1.782 0 0 0-.004-2.52l-54.011-54.012c-9.05-9.049-9.076-23.691-.064-32.703 9.012-9.012 23.653-8.986 32.703.064l54.012 54.012c18.794 18.794 18.851 49.207.131 67.926-18.719 18.72-49.132 18.663-67.926-.131l-36.366-36.367a1.783 1.783 0 0 0-2.52-.003Zm105.784-104.742a1.786 1.786 0 0 0 2.525 2.525l36.366-36.367c18.794-18.793 49.279-18.78 68.089.031 18.811 18.811 18.824 49.296.031 68.089l-54.012 54.012c-9.048 9.048-23.725 9.042-32.782-.015-9.057-9.057-9.063-23.735-.015-32.783l54.012-54.011a1.786 1.786 0 0 0-2.525-2.525L874.2 555.229c-18.794 18.793-49.279 18.78-68.089-.031-18.811-18.81-18.824-49.296-.031-68.089l54.012-54.011c9.048-9.048 23.725-9.042 32.782.015 9.057 9.057 9.063 23.734.015 32.782l-54.012 54.012Z"/>
            </g>
            <g stroke="#62519C" stroke-linecap="round" stroke-miterlimit="10" clip-path="url(#e)">
                <path d="M945.692 412.049a1.784 1.784 0 0 0 .004 2.52l54.011 54.012c9.053 9.05 9.073 23.691.064 32.703-9.011 9.012-23.653 8.986-32.703-.064l-54.011-54.012c-18.795-18.794-18.852-49.207-.132-67.926 18.719-18.72 49.132-18.663 67.926.132l36.369 36.366c.69.695 1.82.699 2.52.003.69-.696.69-1.824-.01-2.52l-54.008-54.011c-9.049-9.05-9.075-23.692-.064-32.704 9.012-9.011 23.654-8.985 32.704.065l54.008 54.011c18.8 18.795 18.85 49.207.13 67.927-18.71 18.719-49.13 18.663-67.922-.132l-36.366-36.366a1.784 1.784 0 0 0-2.52-.004Zm105.788-104.742a1.78 1.78 0 0 0 0 2.524 1.78 1.78 0 0 0 2.52.001l36.37-36.366c18.79-18.793 49.28-18.78 68.09.03 18.81 18.811 18.82 49.296.03 68.089l-54.01 54.012c-9.05 9.048-23.73 9.042-32.79-.015-9.05-9.057-9.06-23.734-.01-32.782l54.01-54.012c.7-.697.7-1.828 0-2.524a1.78 1.78 0 0 0-2.52-.001l-36.37 36.366c-18.79 18.793-49.28 18.78-68.09-.03-18.81-18.811-18.824-49.296-.03-68.089l54.01-54.012c9.05-9.048 23.73-9.042 32.78.015 9.06 9.057 9.07 23.734.02 32.782l-54.01 54.012Z"/>
            </g>
            <g stroke="#62519C" stroke-linecap="round" stroke-miterlimit="10" clip-path="url(#f)">
                <path d="M1158.29 199.45c-.69.696-.69 1.825.01 2.52l54.01 54.012c9.05 9.049 9.07 23.691.06 32.703-9.01 9.012-23.65 8.986-32.7-.064l-54.01-54.012c-18.8-18.794-18.85-49.207-.14-67.926 18.72-18.72 49.14-18.663 67.93.131l36.37 36.366c.69.696 1.82.7 2.52.004.69-.696.69-1.825-.01-2.52l-54.01-54.012c-9.05-9.049-9.07-23.691-.06-32.703 9.01-9.012 23.65-8.986 32.7.064l54.01 54.012c18.8 18.795 18.85 49.207.13 67.926-18.71 18.72-49.13 18.663-67.92-.131l-36.37-36.366c-.69-.696-1.82-.7-2.52-.004Zm105.79-104.742a1.78 1.78 0 0 0 0 2.524 1.78 1.78 0 0 0 2.52 0l36.37-36.366c18.79-18.793 49.28-18.78 68.09.031 18.81 18.81 18.82 49.296.03 68.089l-54.01 54.012c-9.05 9.048-23.73 9.042-32.79-.015-9.05-9.057-9.06-23.735-.01-32.783l54.01-54.011c.7-.697.7-1.828 0-2.524a1.78 1.78 0 0 0-2.52-.001l-36.37 36.366c-18.79 18.793-49.28 18.78-68.09-.031-18.81-18.81-18.82-49.295-.03-68.089l54.01-54.01c9.05-9.048 23.73-9.042 32.78.015 9.06 9.057 9.07 23.734.02 32.782l-54.01 54.012Z"/>
            </g>
            <g clip-path="url(#g)">
                <path stroke="#62519C" stroke-linecap="round" stroke-miterlimit="10"
                      d="M733.746 839.973a1.787 1.787 0 0 0 2.525 2.525l36.367-36.366c18.793-18.793 49.278-18.78 68.088.03 18.811 18.811 18.824 49.296.031 68.089l-54.011 54.012c-9.049 9.048-23.726 9.042-32.783-.015-9.057-9.057-9.063-23.734-.015-32.782l54.012-54.012a1.785 1.785 0 0 0-2.525-2.525l-36.366 36.366c-18.793 18.793-49.279 18.78-68.089-.03-18.811-18.811-18.824-49.296-.031-68.089l54.012-54.012c9.048-9.048 23.725-9.042 32.782.015 9.057 9.057 9.063 23.734.015 32.782l-54.012 54.012Z"/>
            </g>
            <g stroke="#62519C" stroke-linecap="round" stroke-miterlimit="10" clip-path="url(#h)">
                <path d="M840.56 732.117a1.783 1.783 0 0 0 .003 2.52l54.012 54.011c9.049 9.05 9.075 23.692.064 32.704-9.012 9.012-23.654 8.986-32.704-.064l-54.011-54.012c-18.795-18.795-18.851-49.207-.132-67.926 18.72-18.72 49.132-18.663 67.927.131l36.366 36.366c.695.696 1.824.7 2.52.004a1.783 1.783 0 0 0-.004-2.52l-54.011-54.012c-9.05-9.049-9.076-23.691-.064-32.703 9.011-9.012 23.653-8.986 32.703.064l54.012 54.012c18.794 18.794 18.851 49.207.131 67.926-18.719 18.72-49.132 18.663-67.926-.131l-36.367-36.367a1.781 1.781 0 0 0-2.519-.003Zm105.784-104.742a1.785 1.785 0 0 0 2.525 2.525l36.366-36.367c18.795-18.793 49.275-18.78 68.085.031 18.81 18.811 18.83 49.296.03 68.089l-54.007 54.012c-9.048 9.048-23.725 9.042-32.782-.015-9.057-9.057-9.063-23.735-.015-32.783l54.014-54.011c.69-.697.69-1.828 0-2.524a1.792 1.792 0 0 0-2.53-.001l-36.364 36.366c-18.793 18.793-49.278 18.78-68.089-.031-18.81-18.81-18.823-49.296-.03-68.089l54.011-54.011c9.049-9.048 23.726-9.042 32.782.015 9.06 9.057 9.06 23.734.02 32.782l-54.016 54.012Z"/>
            </g>
            <g stroke="#62519C" stroke-linecap="round" stroke-miterlimit="10" clip-path="url(#i)">
                <path d="M1053.16 519.517c-.7.696-.69 1.825 0 2.52l54.01 54.012c9.05 9.05 9.08 23.691.07 32.703-9.01 9.012-23.66 8.986-32.71-.064l-54.01-54.011c-18.79-18.795-18.85-49.208-.13-67.927 18.72-18.719 49.13-18.663 67.93.132l36.36 36.366c.7.695 1.83.699 2.52.003.7-.696.7-1.824 0-2.52l-54.01-54.011c-9.05-9.05-9.08-23.692-.06-32.704 9.01-9.011 23.65-8.985 32.7.065l54.01 54.011c18.79 18.795 18.85 49.207.13 67.927-18.72 18.719-49.13 18.663-67.92-.132l-36.37-36.366a1.784 1.784 0 0 0-2.52-.004Zm105.78-104.742a1.798 1.798 0 0 0 0 2.524c.7.697 1.83.698 2.53.001l36.36-36.366c18.8-18.793 49.28-18.78 68.09.03 18.81 18.811 18.83 49.296.03 68.089l-54.01 54.012c-9.05 9.048-23.72 9.042-32.78-.015-9.06-9.057-9.06-23.734-.01-32.782l54.01-54.012c.69-.697.69-1.827 0-2.524a1.792 1.792 0 0 0-2.53-.001l-36.36 36.366c-18.8 18.793-49.28 18.78-68.09-.03-18.81-18.811-18.83-49.296-.03-68.089l54.01-54.012c9.05-9.048 23.72-9.042 32.78.015 9.06 9.057 9.06 23.734.02 32.782l-54.02 54.012Z"/>
            </g>
            <g stroke="#62519C" stroke-linecap="round" stroke-miterlimit="10" clip-path="url(#j)">
                <path d="M1265.76 306.918c-.7.696-.69 1.824 0 2.52l54.01 54.011c9.05 9.05 9.08 23.692.07 32.704-9.01 9.011-23.66 8.985-32.71-.064l-54.01-54.012c-18.79-18.795-18.85-49.207-.13-67.927 18.72-18.719 49.13-18.663 67.93.132l36.36 36.366c.7.695 1.83.699 2.52.004.7-.696.7-1.825 0-2.52l-54.01-54.012c-9.05-9.05-9.08-23.691-.07-32.703 9.02-9.012 23.66-8.986 32.71.064l54.01 54.012c18.79 18.794 18.85 49.207.13 67.926-18.72 18.72-49.13 18.663-67.93-.132l-36.36-36.366a1.783 1.783 0 0 0-2.52-.003Zm105.78-104.743a1.799 1.799 0 0 0 0 2.525c.7.696 1.83.697 2.53 0l36.36-36.366c18.8-18.793 49.28-18.78 68.09.031 18.81 18.811 18.83 49.296.03 68.089l-54.01 54.011c-9.05 9.049-23.72 9.042-32.78-.015-9.06-9.057-9.06-23.734-.01-32.782l54.01-54.012c.69-.696.69-1.827 0-2.524a1.794 1.794 0 0 0-2.53-.001l-36.36 36.367c-18.8 18.793-49.28 18.78-68.09-.031-18.81-18.811-18.83-49.296-.03-68.089l54.01-54.012c9.05-9.048 23.72-9.042 32.78.015 9.06 9.057 9.06 23.735.01 32.783l-54.01 54.011Z"/>
            </g>
            <g stroke="#62519C" stroke-linecap="round" stroke-miterlimit="10" clip-path="url(#k)">
                <path d="M948.028 839.583a1.783 1.783 0 0 0 .004 2.52l54.008 54.012c9.05 9.049 9.08 23.691.07 32.703-9.014 9.012-23.656 8.986-32.706-.064l-54.012-54.012c-18.794-18.794-18.851-49.207-.131-67.926 18.719-18.72 49.132-18.663 67.926.131l36.363 36.367c.7.695 1.83.699 2.52.003.7-.696.7-1.825 0-2.52l-54.012-54.011c-9.049-9.05-9.075-23.692-.064-32.704 9.012-9.012 23.654-8.986 32.706.064l54.01 54.012c18.79 18.795 18.85 49.207.13 67.926-18.72 18.72-49.13 18.663-67.926-.131l-36.366-36.366a1.782 1.782 0 0 0-2.52-.004Zm105.782-104.742a1.798 1.798 0 0 0 0 2.524c.7.696 1.83.697 2.53.001l36.36-36.367c18.8-18.793 49.28-18.779 68.09.031 18.81 18.811 18.83 49.296.03 68.089l-54.01 54.012c-9.05 9.048-23.72 9.042-32.78-.015-9.06-9.057-9.06-23.734-.02-32.783l54.02-54.011c.69-.697.69-1.828 0-2.524a1.792 1.792 0 0 0-2.53-.001l-36.36 36.366c-18.8 18.793-49.28 18.78-68.09-.031-18.81-18.81-18.83-49.295-.03-68.089l54.01-54.011c9.05-9.048 23.72-9.042 32.78.015 9.06 9.057 9.06 23.734.01 32.782l-54.01 54.012Z"/>
            </g>
            <g stroke="#62519C" stroke-linecap="round" stroke-miterlimit="10" clip-path="url(#l)">
                <path d="M1160.63 626.985c-.7.696-.69 1.825 0 2.52l54.01 54.011c9.05 9.05 9.08 23.692.07 32.704s-23.66 8.985-32.71-.064l-54.01-54.012c-18.79-18.795-18.85-49.207-.13-67.926 18.72-18.72 49.13-18.664 67.93.131l36.36 36.366c.7.696 1.83.7 2.52.004.7-.696.69-1.825 0-2.52l-54.01-54.012c-9.05-9.049-9.08-23.691-.07-32.703 9.02-9.012 23.66-8.986 32.71.064l54.01 54.012c18.79 18.794 18.85 49.207.13 67.926-18.72 18.72-49.13 18.663-67.93-.131l-36.36-36.367a1.783 1.783 0 0 0-2.52-.003Zm105.78-104.742a1.798 1.798 0 0 0 0 2.524c.7.696 1.83.697 2.53.001l36.36-36.367c18.8-18.793 49.28-18.78 68.09.031 18.81 18.811 18.83 49.296.03 68.089l-54.01 54.012c-9.05 9.048-23.72 9.042-32.78-.015-9.06-9.057-9.06-23.735-.02-32.783l54.02-54.011c.69-.697.69-1.828 0-2.525a1.793 1.793 0 0 0-2.53 0l-36.37 36.366c-18.79 18.793-49.27 18.78-68.08-.031-18.81-18.811-18.83-49.296-.03-68.089l54.01-54.011c9.04-9.049 23.72-9.042 32.78.015 9.06 9.057 9.06 23.734.01 32.782l-54.01 54.012Z"/>
            </g>
            <g stroke="#62519C" stroke-linecap="round" stroke-miterlimit="10" clip-path="url(#m)">
                <path d="M1373.23 414.386c-.7.695-.69 1.824 0 2.519l54.01 54.012c9.05 9.05 9.08 23.692.07 32.703-9.02 9.012-23.66 8.986-32.71-.064l-54.01-54.011c-18.79-18.795-18.85-49.207-.13-67.927 18.72-18.719 49.13-18.663 67.93.132l36.36 36.366c.7.695 1.83.699 2.52.004.7-.696.69-1.825 0-2.52l-54.01-54.012c-9.05-9.05-9.08-23.691-.07-32.703 9.02-9.012 23.66-8.986 32.71.064l54.01 54.011c18.79 18.795 18.85 49.207.13 67.927-18.72 18.719-49.13 18.663-67.93-.132l-36.36-36.366a1.783 1.783 0 0 0-2.52-.003Zm105.78-104.743a1.798 1.798 0 0 0 0 2.524c.7.697 1.83.698 2.53.001l36.36-36.366c18.8-18.793 49.28-18.78 68.09.031 18.81 18.81 18.83 49.295.03 68.089l-54.01 54.011c-9.05 9.048-23.72 9.042-32.78-.015-9.06-9.057-9.06-23.734-.02-32.782l54.02-54.012c.69-.697.69-1.827-.01-2.524a1.78 1.78 0 0 0-2.52-.001l-36.37 36.367c-18.79 18.793-49.27 18.779-68.08-.031-18.82-18.811-18.83-49.296-.04-68.089l54.02-54.012c9.04-9.048 23.72-9.042 32.78.015 9.06 9.057 9.06 23.734.01 32.783l-54.01 54.011Z"/>
            </g>
            <g clip-path="url(#n)">
                <path stroke="#62519C" stroke-linecap="round" stroke-miterlimit="10"
                      d="M1161.28 842.308a1.78 1.78 0 0 0 0 2.524c.7.697 1.83.698 2.52.001l36.37-36.366c18.79-18.793 49.28-18.78 68.09.031 18.81 18.81 18.82 49.295.03 68.089l-54.01 54.011c-9.05 9.048-23.73 9.042-32.78-.015-9.06-9.057-9.07-23.734-.02-32.782l54.01-54.012c.7-.697.7-1.827 0-2.524a1.78 1.78 0 0 0-2.52-.001l-36.37 36.367c-18.79 18.793-49.28 18.78-68.09-.031-18.81-18.811-18.82-49.296-.03-68.089l54.01-54.012c9.05-9.048 23.73-9.042 32.79.015 9.05 9.057 9.06 23.734.01 32.783l-54.01 54.011Z"/>
            </g>
            <g stroke="#62519C" stroke-linecap="round" stroke-miterlimit="10" clip-path="url(#o)">
                <path d="M1268.09 734.452c-.69.696-.69 1.825.01 2.52l54.01 54.011c9.05 9.05 9.08 23.692.06 32.704-9.01 9.012-23.65 8.985-32.7-.064l-54.01-54.012c-18.8-18.795-18.85-49.207-.13-67.926 18.72-18.72 49.13-18.664 67.92.131l36.37 36.366c.7.696 1.82.7 2.52.004s.69-1.825 0-2.52l-54.02-54.012c-9.04-9.049-9.07-23.691-.06-32.703 9.01-9.012 23.65-8.986 32.7.064l54.02 54.012c18.79 18.794 18.85 49.207.13 67.926-18.72 18.72-49.13 18.663-67.93-.131l-36.37-36.367a1.783 1.783 0 0 0-2.52-.003Zm105.79-104.742a1.78 1.78 0 0 0 0 2.524c.7.696 1.83.697 2.52.001l36.37-36.367c18.79-18.793 49.28-18.78 68.09.031 18.81 18.811 18.82 49.296.03 68.089L1426.88 718c-9.05 9.048-23.73 9.042-32.78-.015-9.06-9.057-9.07-23.735-.02-32.783l54.01-54.011c.7-.697.7-1.828 0-2.525a1.78 1.78 0 0 0-2.52 0l-36.37 36.366c-18.79 18.793-49.28 18.78-68.09-.031-18.81-18.81-18.82-49.296-.03-68.089l54.01-54.011c9.05-9.048 23.73-9.042 32.79.015 9.05 9.057 9.06 23.734.01 32.782l-54.01 54.012Z"/>
            </g>
            <g clip-path="url(#p)">
                <path stroke="#62519C" stroke-linecap="round" stroke-miterlimit="10"
                      d="M1480.69 521.853c-.69.696-.69 1.825.01 2.52l54.01 54.012c9.05 9.05 9.08 23.691.06 32.703-9.01 9.012-23.65 8.986-32.7-.064l-54.01-54.012c-18.8-18.794-18.85-49.207-.13-67.926 18.72-18.72 49.13-18.663 67.92.131l36.37 36.367c.69.695 1.82.699 2.52.003s.69-1.824 0-2.52l-54.02-54.011c-9.05-9.05-9.07-23.692-.06-32.704 9.01-9.011 23.65-8.985 32.7.064l54.02 54.012c18.79 18.795 18.85 49.207.13 67.927-18.72 18.719-49.13 18.663-67.93-.132l-36.37-36.366c-.69-.695-1.82-.7-2.52-.004Z"/>
            </g>
            <g stroke="#62519C" stroke-linecap="round" stroke-miterlimit="10" clip-path="url(#q)">
                <path d="M1375.56 841.92c-.69.696-.69 1.825.01 2.52l54.01 54.012c9.05 9.05 9.07 23.691.06 32.703-9.01 9.012-23.65 8.986-32.7-.064l-54.01-54.011c-18.8-18.795-18.85-49.207-.13-67.927 18.72-18.719 49.13-18.663 67.92.132l36.37 36.366c.69.695 1.82.699 2.52.003.69-.695.69-1.824 0-2.519l-54.02-54.012c-9.05-9.05-9.07-23.692-.06-32.703 9.01-9.012 23.65-8.986 32.7.064l54.01 54.011c18.8 18.795 18.86 49.207.14 67.927-18.72 18.719-49.14 18.663-67.93-.132l-36.37-36.366a1.783 1.783 0 0 0-2.52-.004Zm105.79-104.742a1.78 1.78 0 0 0 0 2.524c.7.697 1.83.698 2.52.001l36.37-36.366c18.79-18.793 49.28-18.78 68.09.031 18.81 18.81 18.82 49.295.03 68.088l-54.01 54.012c-9.05 9.048-23.73 9.042-32.79-.015-9.05-9.057-9.06-23.734-.01-32.782l54.01-54.012c.7-.697.7-1.827 0-2.524a1.78 1.78 0 0 0-2.52-.001l-36.37 36.366c-18.79 18.794-49.28 18.78-68.09-.03-18.81-18.811-18.82-49.296-.03-68.089l54.01-54.012c9.05-9.048 23.73-9.042 32.78.015 9.06 9.057 9.07 23.734.02 32.783l-54.01 54.011Z"/>
            </g>
        </g>
        <g opacity=".3">
            <g stroke="#62519C" stroke-linecap="round" stroke-miterlimit="10" clip-path="url(#r)">
                <path d="M-123.681 193.074a1.783 1.783 0 0 0 .004 2.52l54.011 54.012c9.05 9.049 9.076 23.691.064 32.703-9.011 9.012-23.653 8.986-32.703-.064l-54.012-54.012c-18.794-18.794-18.851-49.207-.131-67.926 18.719-18.72 49.132-18.663 67.926.131l36.367 36.366c.695.696 1.824.7 2.52.004a1.783 1.783 0 0 0-.004-2.52l-54.012-54.012c-9.049-9.049-9.075-23.691-.064-32.703 9.012-9.012 23.654-8.985 32.704.064L-17 161.649c18.795 18.794 18.851 49.207.132 67.926-18.72 18.72-49.132 18.663-67.927-.131l-36.366-36.366a1.782 1.782 0 0 0-2.52-.004ZM-17.896 88.332a1.786 1.786 0 0 0 2.525 2.525L20.995 54.49c18.793-18.793 49.278-18.78 68.089.031 18.811 18.81 18.824 49.296.03 68.089l-54.011 54.012c-9.048 9.048-23.725 9.042-32.782-.015-9.057-9.057-9.064-23.735-.015-32.783l54.011-54.011a1.785 1.785 0 0 0-2.525-2.525l-36.366 36.366c-18.793 18.793-49.278 18.78-68.089-.031-18.81-18.81-18.824-49.296-.03-68.089L3.318 1.523c9.048-9.048 23.726-9.042 32.782.015 9.057 9.057 9.064 23.734.015 32.782l-54.011 54.012Z"/>
            </g>
            <g clip-path="url(#s)">
                <path stroke="#62519C" stroke-linecap="round" stroke-miterlimit="10"
                      d="M88.919-19.525a1.782 1.782 0 0 0 .003 2.52l54.012 54.012c9.05 9.05 9.076 23.691.064 32.703-9.012 9.012-23.654 8.986-32.703-.064L56.283 15.634C37.488-3.16 37.432-33.573 56.151-52.292c18.72-18.72 49.132-18.663 67.927.131l36.366 36.367a1.783 1.783 0 0 0 2.52.003 1.782 1.782 0 0 0-.003-2.52l-54.012-54.011c-9.05-9.05-9.076-23.692-.064-32.704s23.654-8.985 32.703.064L195.6-50.95c18.795 18.795 18.851 49.207.132 67.927-18.72 18.719-49.132 18.663-67.927-.132L91.439-19.521a1.782 1.782 0 0 0-2.52-.004Z"/>
            </g>
            <g clip-path="url(#t)">
                <path stroke="#62519C" stroke-linecap="round" stroke-miterlimit="10"
                      d="M-123.027 408.399a1.785 1.785 0 0 0 2.525 2.525l36.366-36.366c18.793-18.794 49.278-18.78 68.089.03 18.81 18.811 18.824 49.296.03 68.089l-54.01 54.012c-9.049 9.048-23.726 9.042-32.783-.015-9.057-9.057-9.063-23.734-.015-32.783l54.011-54.011a1.785 1.785 0 0 0-2.525-2.525l-36.366 36.366c-18.793 18.793-49.278 18.78-68.089-.031-18.81-18.81-18.823-49.295-.03-68.088l54.011-54.012c9.048-9.048 23.726-9.042 32.783.015 9.057 9.057 9.063 23.734.015 32.782l-54.012 54.012Z"/>
            </g>
            <g stroke="#62519C" stroke-linecap="round" stroke-miterlimit="10" clip-path="url(#u)">
                <path d="M-16.212 300.542a1.781 1.781 0 0 0 .003 2.519l54.012 54.012c9.05 9.05 9.076 23.692.064 32.703-9.012 9.012-23.653 8.986-32.703-.064l-54.012-54.011c-18.794-18.795-18.85-49.207-.131-67.927 18.719-18.719 49.131-18.663 67.926.132l36.366 36.366a1.782 1.782 0 0 0 2.52.003 1.781 1.781 0 0 0-.003-2.519L3.818 247.744c-9.05-9.05-9.076-23.692-.064-32.703 9.012-9.012 23.654-8.986 32.703.064l54.012 54.011c18.795 18.795 18.851 49.207.132 67.927-18.72 18.719-49.132 18.663-67.927-.132l-36.366-36.366a1.782 1.782 0 0 0-2.52-.003ZM89.573 195.799a1.785 1.785 0 0 0 2.525 2.525l36.366-36.366c18.793-18.793 49.278-18.78 68.089.031 18.81 18.81 18.823 49.295.03 68.089l-54.011 54.011c-9.048 9.048-23.726 9.042-32.783-.015-9.057-9.057-9.063-23.734-.015-32.782l54.012-54.012a1.785 1.785 0 0 0-2.525-2.525l-36.366 36.367c-18.793 18.793-49.278 18.779-68.089-.031-18.81-18.811-18.824-49.296-.03-68.089l54.011-54.012c9.048-9.048 23.725-9.042 32.782.015 9.057 9.057 9.063 23.734.015 32.783l-54.011 54.011Z"/>
            </g>
            <g stroke="#62519C" stroke-linecap="round" stroke-miterlimit="10" clip-path="url(#v)">
                <path d="M196.386 87.943a1.782 1.782 0 0 0 .003 2.52l54.012 54.012c9.05 9.049 9.076 23.691.064 32.703-9.012 9.012-23.654 8.986-32.704-.064l-54.011-54.012c-18.795-18.794-18.851-49.207-.132-67.926 18.72-18.72 49.132-18.663 67.927.131l36.366 36.367a1.783 1.783 0 0 0 2.52.003 1.781 1.781 0 0 0-.004-2.52l-54.011-54.011c-9.05-9.05-9.076-23.692-.064-32.704s23.653-8.985 32.703.064l54.012 54.012c18.794 18.795 18.851 49.207.131 67.927-18.719 18.719-49.132 18.663-67.926-.132l-36.366-36.366a1.783 1.783 0 0 0-2.52-.004ZM302.17-16.8a1.785 1.785 0 0 0 2.525 2.526l36.366-36.366c18.794-18.793 49.279-18.78 68.089.03 18.811 18.811 18.824 49.296.031 68.09l-54.012 54.01c-9.048 9.049-23.725 9.043-32.782-.014-9.057-9.057-9.063-23.734-.015-32.782l54.012-54.012a1.785 1.785 0 0 0-2.525-2.525l-36.367 36.366c-18.793 18.793-49.278 18.78-68.088-.03-18.811-18.811-18.824-49.296-.031-68.09l54.012-54.011c9.048-9.048 23.725-9.042 32.782.015 9.057 9.057 9.063 23.734.015 32.782L302.17-16.799Z"/>
            </g>
            <g stroke="#62519C" stroke-linecap="round" stroke-miterlimit="10" clip-path="url(#w)">
                <path d="M-121.345 620.609a1.783 1.783 0 0 0 .004 2.52l54.011 54.012c9.05 9.049 9.076 23.691.064 32.703-9.011 9.012-23.653 8.986-32.703-.064l-54.012-54.012c-18.794-18.794-18.851-49.207-.131-67.926 18.719-18.72 49.132-18.663 67.926.131l36.367 36.367a1.782 1.782 0 0 0 2.52.003 1.783 1.783 0 0 0-.004-2.52l-54.012-54.011c-9.049-9.05-9.076-23.692-.064-32.704s23.654-8.985 32.704.064l54.011 54.012c18.795 18.795 18.851 49.207.132 67.927-18.72 18.719-49.132 18.663-67.927-.132l-36.366-36.366a1.783 1.783 0 0 0-2.52-.004ZM-15.56 515.867a1.785 1.785 0 0 0 2.525 2.525l36.366-36.366c18.793-18.794 49.278-18.78 68.089.03 18.811 18.811 18.824 49.296.03 68.089l-54.01 54.012c-9.048 9.048-23.725 9.042-32.782-.015-9.057-9.057-9.064-23.734-.015-32.783l54.011-54.011a1.785 1.785 0 0 0-2.525-2.525l-36.366 36.366c-18.793 18.793-49.278 18.78-68.089-.031-18.81-18.81-18.824-49.295-.03-68.088l54.011-54.012c9.048-9.048 23.725-9.042 32.782.015 9.057 9.057 9.064 23.734.015 32.782l-54.011 54.012Z"/>
            </g>
            <g stroke="#62519C" stroke-linecap="round" stroke-miterlimit="10" clip-path="url(#x)">
                <path d="M91.255 408.01a1.781 1.781 0 0 0 .003 2.519l54.012 54.012c9.05 9.05 9.076 23.692.064 32.703-9.012 9.012-23.654 8.986-32.703-.064l-54.012-54.011c-18.795-18.795-18.851-49.207-.132-67.927 18.72-18.719 49.132-18.663 67.927.132l36.366 36.366a1.783 1.783 0 0 0 2.52.003 1.781 1.781 0 0 0-.003-2.519l-54.012-54.012c-9.05-9.05-9.076-23.691-.064-32.703 9.012-9.012 23.653-8.986 32.703.064l54.012 54.011c18.795 18.795 18.851 49.207.131 67.927-18.719 18.719-49.131 18.663-67.926-.132l-36.366-36.366a1.782 1.782 0 0 0-2.52-.003Zm105.784-104.743a1.787 1.787 0 0 0 2.525 2.525l36.367-36.366c18.793-18.793 49.278-18.78 68.088.031 18.811 18.81 18.824 49.295.031 68.089l-54.011 54.011c-9.049 9.048-23.726 9.042-32.783-.015-9.057-9.057-9.063-23.734-.015-32.782l54.012-54.012a1.785 1.785 0 0 0-2.525-2.525l-36.366 36.367c-18.793 18.793-49.279 18.779-68.089-.031-18.811-18.811-18.824-49.296-.031-68.089l54.012-54.012c9.048-9.048 23.725-9.042 32.782.015 9.057 9.057 9.063 23.734.015 32.783l-54.012 54.011Z"/>
            </g>
            <g stroke="#62519C" stroke-linecap="round" stroke-miterlimit="10" clip-path="url(#y)">
                <path d="M303.854 195.409a1.784 1.784 0 0 0 .004 2.52l54.012 54.012c9.049 9.049 9.075 23.691.064 32.703-9.012 9.012-23.654 8.986-32.704-.064l-54.011-54.012c-18.795-18.794-18.851-49.207-.132-67.926 18.719-18.72 49.132-18.663 67.927.131l36.366 36.367a1.783 1.783 0 0 0 2.52.003 1.784 1.784 0 0 0-.004-2.52l-54.011-54.011c-9.05-9.05-9.076-23.692-.064-32.704 9.011-9.011 23.653-8.985 32.703.064l54.011 54.012c18.795 18.795 18.852 49.207.132 67.927-18.719 18.719-49.132 18.663-67.926-.132l-36.367-36.366a1.783 1.783 0 0 0-2.52-.004ZM409.639 90.667a1.785 1.785 0 0 0 2.525 2.525l36.366-36.366c18.793-18.794 49.278-18.78 68.089.03 18.811 18.811 18.824 49.296.031 68.089l-54.012 54.012c-9.048 9.048-23.725 9.042-32.782-.015-9.057-9.057-9.063-23.734-.015-32.782l54.011-54.012a1.786 1.786 0 0 0-2.524-2.525l-36.367 36.366c-18.793 18.793-49.278 18.78-68.089-.031-18.81-18.81-18.823-49.295-.03-68.088l54.011-54.012c9.048-9.048 23.726-9.042 32.783.015 9.057 9.057 9.063 23.734.015 32.782l-54.012 54.012Z"/>
            </g>
            <g clip-path="url(#z)">
                <path stroke="#62519C" stroke-linecap="round" stroke-miterlimit="10"
                      d="M516.454-17.189a1.782 1.782 0 0 0 .004 2.52l54.011 54.012c9.05 9.05 9.076 23.691.064 32.703-9.012 9.012-23.653 8.986-32.703-.064L483.818 17.97c-18.794-18.794-18.851-49.207-.131-67.926 18.719-18.72 49.132-18.663 67.926.131l36.366 36.367a1.783 1.783 0 0 0 2.52.003 1.782 1.782 0 0 0-.003-2.52l-54.012-54.012c-9.05-9.05-9.076-23.691-.064-32.703 9.012-9.012 23.654-8.985 32.703.064l54.012 54.012c18.795 18.794 18.851 49.207.132 67.926-18.72 18.72-49.132 18.663-67.927-.131l-36.366-36.366a1.783 1.783 0 0 0-2.52-.004Z"/>
            </g>
            <g stroke="#62519C" stroke-linecap="round" stroke-miterlimit="10" clip-path="url(#A)">
                <path d="M-13.876 728.076a1.783 1.783 0 0 0 .003 2.52l54.012 54.011c9.05 9.05 9.076 23.692.064 32.704-9.012 9.011-23.654 8.985-32.703-.064l-54.012-54.012c-18.794-18.795-18.85-49.207-.132-67.927 18.72-18.719 49.132-18.663 67.927.132l36.366 36.366a1.783 1.783 0 0 0 2.52.004 1.783 1.783 0 0 0-.003-2.52L6.154 675.278c-9.05-9.05-9.076-23.691-.064-32.703 9.012-9.012 23.654-8.986 32.703.064l54.012 54.012c18.795 18.794 18.851 49.207.132 67.926-18.72 18.72-49.132 18.663-67.927-.132l-36.366-36.366a1.782 1.782 0 0 0-2.52-.003ZM91.909 623.333a1.787 1.787 0 0 0 2.524 2.525l36.367-36.366c18.793-18.793 49.278-18.78 68.089.031 18.81 18.811 18.823 49.296.03 68.089l-54.011 54.011c-9.048 9.049-23.726 9.042-32.783-.015-9.057-9.057-9.063-23.734-.015-32.782l54.012-54.012a1.785 1.785 0 0 0-2.525-2.525l-36.366 36.367c-18.793 18.793-49.278 18.78-68.09-.031-18.81-18.811-18.823-49.296-.03-68.089l54.012-54.012c9.048-9.048 23.725-9.042 32.782.015 9.057 9.057 9.063 23.735.015 32.783l-54.011 54.011Z"/>
            </g>
            <g stroke="#62519C" stroke-linecap="round" stroke-miterlimit="10" clip-path="url(#B)">
                <path d="M198.724 515.478a1.781 1.781 0 0 0 .003 2.519l54.012 54.012c9.049 9.05 9.076 23.692.064 32.703-9.012 9.012-23.654 8.986-32.704-.064l-54.011-54.011c-18.795-18.795-18.851-49.207-.132-67.927 18.72-18.719 49.132-18.663 67.927.132l36.366 36.366a1.784 1.784 0 0 0 2.52.004 1.782 1.782 0 0 0-.004-2.52l-54.011-54.012c-9.05-9.05-9.076-23.691-.064-32.703 9.011-9.012 23.653-8.986 32.703.064l54.012 54.011c18.794 18.795 18.851 49.207.131 67.927-18.719 18.719-49.132 18.663-67.926-.132l-36.367-36.366a1.781 1.781 0 0 0-2.519-.003Zm105.784-104.743a1.785 1.785 0 0 0 2.525 2.525l36.366-36.366c18.793-18.793 49.279-18.78 68.089.031 18.811 18.81 18.824 49.295.031 68.089l-54.012 54.011c-9.048 9.048-23.725 9.042-32.782-.015-9.057-9.057-9.063-23.734-.015-32.782l54.012-54.012a1.787 1.787 0 0 0-2.525-2.525l-36.367 36.367c-18.793 18.793-49.278 18.78-68.088-.031-18.811-18.811-18.824-49.296-.031-68.089l54.011-54.012c9.049-9.048 23.726-9.042 32.783.015 9.057 9.057 9.063 23.734.015 32.783l-54.012 54.011Z"/>
            </g>
            <g stroke="#62519C" stroke-linecap="round" stroke-miterlimit="10" clip-path="url(#C)">
                <path d="M411.321 302.877a1.783 1.783 0 0 0 .004 2.52l54.011 54.011c9.05 9.05 9.076 23.692.064 32.704-9.011 9.011-23.653 8.985-32.703-.064l-54.012-54.012c-18.794-18.795-18.851-49.207-.131-67.927 18.719-18.719 49.132-18.663 67.926.132l36.367 36.366a1.782 1.782 0 0 0 2.519.004 1.783 1.783 0 0 0-.003-2.52l-54.012-54.012c-9.049-9.05-9.076-23.691-.064-32.703 9.012-9.012 23.654-8.986 32.704.064l54.011 54.012c18.795 18.794 18.851 49.207.132 67.926-18.72 18.72-49.132 18.663-67.927-.132l-36.366-36.366a1.783 1.783 0 0 0-2.52-.003Zm105.785-104.743a1.786 1.786 0 0 0 2.525 2.525l36.366-36.366c18.793-18.793 49.278-18.78 68.089.031s18.824 49.296.031 68.089l-54.012 54.011c-9.048 9.049-23.725 9.042-32.782-.015-9.057-9.057-9.064-23.734-.015-32.782l54.011-54.012a1.785 1.785 0 0 0-2.525-2.525l-36.366 36.367c-18.793 18.793-49.278 18.78-68.089-.031-18.81-18.811-18.824-49.296-.031-68.089l54.012-54.011c9.048-9.049 23.725-9.043 32.782.014 9.057 9.057 9.064 23.735.015 32.783l-54.011 54.011Z"/>
            </g>
            <g stroke="#62519C" stroke-linecap="round" stroke-miterlimit="10" clip-path="url(#D)">
                <path d="M623.921 90.278a1.782 1.782 0 0 0 .003 2.52l54.012 54.012c9.05 9.049 9.076 23.691.064 32.703-9.012 9.012-23.654 8.986-32.703-.064l-54.012-54.012c-18.795-18.794-18.851-49.207-.132-67.926 18.72-18.72 49.132-18.663 67.927.131l36.366 36.367a1.783 1.783 0 0 0 2.52.003 1.782 1.782 0 0 0-.003-2.52l-54.012-54.011c-9.05-9.05-9.076-23.692-.064-32.704s23.653-8.985 32.703.064l54.012 54.012c18.795 18.795 18.851 49.207.131 67.926-18.719 18.72-49.131 18.664-67.926-.131l-36.366-36.366a1.783 1.783 0 0 0-2.52-.004ZM729.705-14.464a1.787 1.787 0 0 0 2.525 2.525l36.367-36.367c18.793-18.793 49.278-18.78 68.088.031 18.811 18.81 18.824 49.296.031 68.09l-54.011 54.01c-9.049 9.049-23.726 9.043-32.783-.014-9.057-9.057-9.063-23.734-.015-32.783l54.012-54.011a1.785 1.785 0 0 0-2.525-2.525l-36.366 36.366c-18.793 18.793-49.279 18.78-68.089-.03-18.811-18.811-18.824-49.296-.031-68.09l54.012-54.011c9.048-9.048 23.725-9.042 32.782.015 9.057 9.057 9.063 23.734.015 32.782l-54.012 54.012Z"/>
            </g>
            <g stroke="#62519C" stroke-linecap="round" stroke-miterlimit="10" clip-path="url(#E)">
                <path d="M93.59 835.545a1.783 1.783 0 0 0 .004 2.52l54.012 54.011c9.05 9.05 9.076 23.692.064 32.704-9.012 9.011-23.654 8.985-32.703-.064l-54.012-54.012c-18.795-18.795-18.851-49.207-.132-67.927 18.72-18.719 49.132-18.663 67.927.132l36.366 36.366a1.784 1.784 0 0 0 2.52.004 1.783 1.783 0 0 0-.003-2.52l-54.012-54.012c-9.05-9.05-9.076-23.691-.064-32.703 9.012-9.012 23.653-8.986 32.703.064l54.012 54.012c18.794 18.794 18.851 49.207.131 67.926-18.719 18.72-49.131 18.663-67.926-.132l-36.366-36.366a1.782 1.782 0 0 0-2.52-.003Zm105.785-104.743a1.786 1.786 0 0 0 2.525 2.525l36.367-36.366c18.793-18.793 49.278-18.78 68.088.031 18.811 18.81 18.824 49.296.031 68.089l-54.012 54.011c-9.048 9.049-23.725 9.042-32.782-.015-9.057-9.057-9.063-23.734-.015-32.782l54.012-54.012a1.785 1.785 0 0 0-2.525-2.525l-36.366 36.367c-18.794 18.793-49.279 18.78-68.089-.031-18.811-18.811-18.824-49.296-.031-68.089l54.012-54.012c9.048-9.048 23.725-9.042 32.782.015 9.057 9.057 9.063 23.735.015 32.783l-54.012 54.011Z"/>
            </g>
            <g stroke="#62519C" stroke-linecap="round" stroke-miterlimit="10" clip-path="url(#F)">
                <path d="M306.19 622.945a1.784 1.784 0 0 0 .004 2.52l54.011 54.012c9.05 9.049 9.076 23.691.065 32.703-9.012 9.012-23.654 8.986-32.704-.064l-54.011-54.012c-18.795-18.794-18.851-49.207-.132-67.926 18.719-18.72 49.132-18.663 67.927.131l36.366 36.367a1.783 1.783 0 0 0 2.52.003 1.784 1.784 0 0 0-.004-2.52l-54.011-54.011c-9.05-9.05-9.076-23.692-.065-32.704 9.012-9.012 23.654-8.985 32.704.064l54.011 54.012c18.795 18.795 18.851 49.207.132 67.926-18.719 18.72-49.132 18.664-67.927-.131l-36.366-36.366a1.782 1.782 0 0 0-2.52-.004Zm105.785-104.742a1.785 1.785 0 0 0 2.525 2.525l36.366-36.366c18.793-18.794 49.278-18.78 68.089.03 18.811 18.811 18.824 49.296.031 68.089l-54.012 54.012c-9.048 9.048-23.725 9.042-32.782-.015-9.057-9.057-9.063-23.734-.015-32.783l54.011-54.011a1.786 1.786 0 0 0-2.525-2.525l-36.366 36.366c-18.793 18.793-49.278 18.78-68.089-.031-18.81-18.81-18.824-49.295-.03-68.089l54.011-54.011c9.048-9.048 23.726-9.042 32.783.015 9.057 9.057 9.063 23.734.015 32.782l-54.012 54.012Z"/>
            </g>
            <g stroke="#62519C" stroke-linecap="round" stroke-miterlimit="10" clip-path="url(#G)">
                <path d="M518.79 410.346a1.783 1.783 0 0 0 .003 2.52l54.012 54.012c9.05 9.049 9.076 23.691.064 32.703-9.012 9.012-23.653 8.986-32.703-.064l-54.012-54.012c-18.794-18.794-18.851-49.207-.131-67.926 18.719-18.72 49.131-18.663 67.926.131l36.366 36.367a1.783 1.783 0 0 0 2.52.003 1.783 1.783 0 0 0-.003-2.52l-54.012-54.011c-9.05-9.05-9.076-23.692-.064-32.704 9.012-9.011 23.654-8.985 32.703.064l54.012 54.012c18.795 18.795 18.851 49.207.132 67.927-18.72 18.719-49.132 18.663-67.927-.132L521.31 410.35a1.783 1.783 0 0 0-2.52-.004Zm105.785-104.742a1.786 1.786 0 0 0 2.524 2.525l36.367-36.366c18.793-18.794 49.278-18.78 68.089.03 18.81 18.811 18.823 49.296.03 68.089l-54.011 54.012c-9.048 9.048-23.726 9.042-32.783-.015-9.057-9.057-9.063-23.734-.015-32.783l54.012-54.011a1.785 1.785 0 0 0-2.525-2.525l-36.366 36.366c-18.793 18.793-49.278 18.78-68.089-.031-18.811-18.81-18.824-49.295-.031-68.088l54.012-54.012c9.048-9.048 23.725-9.042 32.782.015 9.057 9.057 9.063 23.734.015 32.782l-54.011 54.012Z"/>
            </g>
            <g stroke="#62519C" stroke-linecap="round" stroke-miterlimit="10" clip-path="url(#H)">
                <path d="M731.39 197.747a1.781 1.781 0 0 0 .003 2.519l54.012 54.012c9.049 9.05 9.076 23.692.064 32.703-9.012 9.012-23.654 8.986-32.704-.064l-54.011-54.011c-18.795-18.795-18.851-49.207-.132-67.927 18.72-18.719 49.132-18.663 67.927.132l36.366 36.366a1.784 1.784 0 0 0 2.52.004 1.782 1.782 0 0 0-.004-2.52l-54.011-54.012c-9.05-9.05-9.076-23.691-.064-32.703 9.011-9.012 23.653-8.986 32.703.064l54.012 54.011c18.794 18.795 18.851 49.208.131 67.927-18.719 18.719-49.132 18.663-67.926-.132l-36.367-36.366a1.781 1.781 0 0 0-2.519-.003ZM837.174 93.004a1.785 1.785 0 0 0 2.525 2.525l36.366-36.366c18.793-18.793 49.279-18.78 68.089.03 18.811 18.811 18.824 49.296.031 68.09l-54.012 54.011c-9.048 9.048-23.725 9.042-32.782-.015-9.057-9.057-9.063-23.734-.015-32.782l54.012-54.012a1.787 1.787 0 0 0-2.525-2.525l-36.367 36.367c-18.793 18.793-49.278 18.78-68.088-.031-18.811-18.811-18.824-49.296-.031-68.089l54.011-54.012c9.049-9.048 23.726-9.042 32.783.015 9.057 9.057 9.063 23.735.015 32.783l-54.012 54.011Z"/>
            </g>
            <g clip-path="url(#I)">
                <path stroke="#62519C" stroke-linecap="round" stroke-miterlimit="10"
                      d="M943.987-14.852a1.782 1.782 0 0 0 .004 2.52l54.011 54.012c9.048 9.05 9.078 23.691.064 32.703-9.011 9.012-23.653 8.986-32.703-.064l-54.012-54.011C892.557 1.513 892.5-28.9 911.22-47.62c18.719-18.72 49.132-18.663 67.926.132l36.364 36.366c.7.695 1.83.699 2.52.003.7-.696.69-1.824 0-2.52L964.017-67.65c-9.049-9.05-9.076-23.692-.064-32.704 9.012-9.011 23.654-8.985 32.704.064l54.013 54.012c18.79 18.795 18.85 49.207.13 67.927-18.72 18.72-49.13 18.663-67.927-.132l-36.366-36.366a1.783 1.783 0 0 0-2.52-.004Z"/>
            </g>
            <g clip-path="url(#J)">
                <path stroke="#62519C" stroke-linecap="round" stroke-miterlimit="10"
                      d="M306.844 838.27a1.786 1.786 0 0 0 2.525 2.525l36.366-36.366c18.793-18.793 49.278-18.78 68.089.031s18.824 49.296.031 68.089l-54.012 54.011c-9.048 9.049-23.725 9.042-32.782-.015-9.057-9.057-9.063-23.734-.015-32.782l54.012-54.012a1.787 1.787 0 0 0-2.525-2.525l-36.367 36.367c-18.793 18.793-49.278 18.78-68.089-.031-18.81-18.811-18.823-49.296-.03-68.089l54.011-54.012c9.049-9.048 23.726-9.042 32.783.015 9.057 9.057 9.063 23.735.015 32.783l-54.012 54.011Z"/>
            </g>
            <g stroke="#62519C" stroke-linecap="round" stroke-miterlimit="10" clip-path="url(#K)">
                <path d="M413.659 730.414a1.782 1.782 0 0 0 .004 2.52l54.011 54.011c9.05 9.05 9.076 23.692.064 32.703-9.012 9.012-23.653 8.986-32.703-.064l-54.012-54.011c-18.794-18.795-18.851-49.207-.131-67.927 18.719-18.719 49.132-18.663 67.926.132l36.366 36.366a1.784 1.784 0 0 0 2.52.004 1.783 1.783 0 0 0-.003-2.52l-54.012-54.012c-9.05-9.05-9.076-23.691-.064-32.703 9.012-9.012 23.654-8.986 32.704.064l54.011 54.011c18.795 18.795 18.851 49.208.132 67.927-18.72 18.719-49.132 18.663-67.927-.132l-36.366-36.366a1.783 1.783 0 0 0-2.52-.003Zm105.785-104.743a1.786 1.786 0 0 0 2.525 2.525l36.366-36.366c18.793-18.793 49.278-18.78 68.089.031 18.81 18.81 18.824 49.295.03 68.089l-54.011 54.011c-9.048 9.048-23.726 9.042-32.783-.015-9.057-9.057-9.063-23.734-.014-32.782l54.011-54.012a1.785 1.785 0 0 0-2.525-2.525l-36.366 36.367c-18.793 18.793-49.278 18.78-68.089-.031s-18.824-49.296-.031-68.089l54.012-54.012c9.048-9.048 23.725-9.042 32.782.015 9.057 9.057 9.063 23.735.015 32.783l-54.011 54.011Z"/>
            </g>
            <g stroke="#62519C" stroke-linecap="round" stroke-miterlimit="10" clip-path="url(#L)">
                <path d="M626.259 517.814a1.781 1.781 0 0 0 .003 2.519l54.012 54.012c9.05 9.05 9.076 23.692.064 32.703-9.012 9.012-23.654 8.986-32.703-.064l-54.012-54.011c-18.795-18.795-18.851-49.207-.132-67.927 18.72-18.719 49.132-18.663 67.927.132l36.366 36.366a1.783 1.783 0 0 0 2.52.003 1.78 1.78 0 0 0-.004-2.519l-54.011-54.012c-9.05-9.05-9.076-23.692-.064-32.703 9.012-9.012 23.653-8.986 32.703.064l54.012 54.011c18.794 18.795 18.851 49.207.131 67.927-18.719 18.719-49.132 18.663-67.926-.132l-36.366-36.366a1.783 1.783 0 0 0-2.52-.003Zm105.784-104.743a1.786 1.786 0 0 0 2.525 2.525l36.366-36.366c18.794-18.793 49.279-18.78 68.089.031 18.811 18.81 18.824 49.295.031 68.089l-54.012 54.011c-9.048 9.048-23.725 9.042-32.782-.015-9.057-9.057-9.063-23.734-.015-32.782l54.012-54.012a1.786 1.786 0 0 0-2.525-2.525l-36.366 36.366c-18.794 18.794-49.279 18.78-68.089-.03-18.811-18.811-18.824-49.296-.031-68.089l54.012-54.012c9.048-9.048 23.725-9.042 32.782.015 9.057 9.057 9.063 23.734.015 32.783l-54.012 54.011Z"/>
            </g>
            <g stroke="#62519C" stroke-linecap="round" stroke-miterlimit="10" clip-path="url(#M)">
                <path d="M838.856 305.215a1.784 1.784 0 0 0 .004 2.52l54.011 54.011c9.05 9.05 9.076 23.692.065 32.704-9.012 9.011-23.654 8.985-32.704-.065l-54.011-54.011c-18.795-18.795-18.851-49.207-.132-67.927 18.719-18.719 49.132-18.663 67.927.132l36.366 36.366a1.784 1.784 0 0 0 2.52.004 1.784 1.784 0 0 0-.004-2.52l-54.011-54.012c-9.05-9.05-9.076-23.691-.065-32.703 9.012-9.012 23.654-8.986 32.704.064l54.011 54.011c18.795 18.795 18.851 49.208.132 67.927-18.719 18.719-49.132 18.663-67.927-.132l-36.366-36.366a1.783 1.783 0 0 0-2.52-.003Zm105.785-104.743a1.786 1.786 0 0 0 2.525 2.525l36.366-36.366c18.798-18.793 49.278-18.78 68.088.031 18.81 18.81 18.82 49.296.03 68.089l-54.01 54.011c-9.048 9.048-23.725 9.042-32.782-.015-9.057-9.057-9.063-23.734-.015-32.782l54.007-54.012c.7-.696.7-1.827 0-2.524a1.782 1.782 0 0 0-2.52-.001l-36.367 36.367c-18.793 18.793-49.278 18.78-68.089-.031-18.81-18.811-18.823-49.296-.03-68.089l54.011-54.012c9.048-9.048 23.726-9.042 32.783.015 9.052 9.057 9.062 23.735.015 32.783l-54.012 54.011Z"/>
            </g>
            <g stroke="#62519C" stroke-linecap="round" stroke-miterlimit="10" clip-path="url(#N)">
                <path d="M1051.46 92.616c-.7.696-.7 1.825 0 2.52l54.01 54.011c9.05 9.05 9.08 23.692.07 32.704-9.02 9.011-23.66 8.985-32.71-.064l-54.01-54.012c-18.79-18.795-18.851-49.207-.13-67.927 18.72-18.719 49.13-18.663 67.93.132l36.36 36.366c.7.695 1.83.7 2.52.004.7-.696.69-1.825 0-2.52l-54.01-54.012c-9.05-9.05-9.08-23.691-.07-32.703 9.01-9.012 23.66-8.986 32.71.064l54.01 54.012c18.79 18.794 18.85 49.207.13 67.926-18.72 18.72-49.13 18.663-67.93-.131l-36.36-36.367a1.783 1.783 0 0 0-2.52-.003Zm105.78-104.743a1.78 1.78 0 0 0 0 2.525c.7.696 1.83.697 2.53 0l36.36-36.366c18.79-18.793 49.28-18.78 68.09.03 18.81 18.812 18.82 49.297.03 68.09l-54.01 54.011c-9.05 9.049-23.73 9.043-32.78-.014-9.06-9.058-9.07-23.735-.02-32.783l54.01-54.011c.7-.697.7-1.828 0-2.525a1.78 1.78 0 0 0-2.52 0l-36.37 36.366c-18.79 18.793-49.28 18.78-68.09-.031-18.81-18.81-18.82-49.296-.03-68.089l54.01-54.011c9.05-9.049 23.73-9.043 32.79.014 9.05 9.058 9.06 23.735.01 32.783l-54.01 54.012Z"/>
            </g>
        </g>
    </g>
    <defs>
        <clipPath id="c">
            <path fill="#fff" d="m453.121 838.378 210.263-210.263 105.131 105.131L558.252 943.51z"/>
        </clipPath>
        <clipPath id="d">
            <path fill="#fff" d="m665.721 625.779 210.263-210.263 105.131 105.131L770.852 730.91z"/>
        </clipPath>
        <clipPath id="e">
            <path fill="#fff" d="m878.32 413.179 210.263-210.263 105.131 105.131L983.451 518.31z"/>
        </clipPath>
        <clipPath id="f">
            <path fill="#fff" d="M1090.92 200.58 1301.183-9.683l105.131 105.131-210.263 210.263z"/>
        </clipPath>
        <clipPath id="g">
            <path fill="#fff" d="m560.59 945.845 210.263-210.263 105.131 105.131-210.263 210.263z"/>
        </clipPath>
        <clipPath id="h">
            <path fill="#fff" d="m773.188 733.247 210.263-210.263 105.131 105.131L878.32 838.378z"/>
        </clipPath>
        <clipPath id="i">
            <path fill="#fff" d="m985.787 520.647 210.263-210.263 105.131 105.131-210.263 210.263z"/>
        </clipPath>
        <clipPath id="j">
            <path fill="#fff" d="m1198.39 308.048 210.263-210.263 105.131 105.131-210.263 210.263z"/>
        </clipPath>
        <clipPath id="k">
            <path fill="#fff" d="m880.656 840.713 210.263-210.263 105.131 105.13-210.263 210.264z"/>
        </clipPath>
        <clipPath id="l">
            <path fill="#fff" d="m1093.26 628.115 210.263-210.263 105.131 105.131-210.263 210.263z"/>
        </clipPath>
        <clipPath id="m">
            <path fill="#fff" d="m1305.86 415.516 210.263-210.263 105.131 105.131-210.263 210.263z"/>
        </clipPath>
        <clipPath id="n">
            <path fill="#fff" d="m988.123 948.181 210.263-210.263 105.131 105.131-210.263 210.263z"/>
        </clipPath>
        <clipPath id="o">
            <path fill="#fff" d="m1200.72 735.582 210.263-210.263 105.131 105.131-210.263 210.263z"/>
        </clipPath>
        <clipPath id="p">
            <path fill="#fff" d="m1413.32 522.983 210.263-210.263 105.131 105.131-210.263 210.263z"/>
        </clipPath>
        <clipPath id="q">
            <path fill="#fff" d="m1308.19 843.051 210.263-210.263 105.131 105.131-210.263 210.263z"/>
        </clipPath>
        <clipPath id="r">
            <path fill="#fff" d="M-191.053 194.204 19.21-16.059 124.341 89.072-85.922 299.335z"/>
        </clipPath>
        <clipPath id="s">
            <path fill="#fff" d="M21.547-18.395 231.81-228.658l105.131 105.131L126.678 86.736z"/>
        </clipPath>
        <clipPath id="t">
            <path fill="#fff" d="m-296.184 514.271 210.263-210.263L19.21 409.139l-210.263 210.263z"/>
        </clipPath>
        <clipPath id="u">
            <path fill="#fff" d="M-83.584 301.672 126.679 91.409 231.81 196.54 21.547 406.803z"/>
        </clipPath>
        <clipPath id="v">
            <path fill="#fff" d="M129.014 89.073 339.277-121.19 444.408-16.059 234.145 194.205z"/>
        </clipPath>
        <clipPath id="w">
            <path fill="#fff" d="M-188.717 621.739 21.546 411.476l105.131 105.131L-83.586 726.87z"/>
        </clipPath>
        <clipPath id="x">
            <path fill="#fff" d="m23.883 409.14 210.263-210.263 105.131 105.131-210.263 210.263z"/>
        </clipPath>
        <clipPath id="y">
            <path fill="#fff" d="M236.482 196.539 446.745-13.724 551.876 91.407 341.613 301.67z"/>
        </clipPath>
        <clipPath id="z">
            <path fill="#fff" d="m449.082-16.059 210.263-210.263 105.131 105.131L554.213 89.072z"/>
        </clipPath>
        <clipPath id="A">
            <path fill="#fff" d="m-81.248 729.206 210.263-210.263 105.131 105.131L23.883 834.337z"/>
        </clipPath>
        <clipPath id="B">
            <path fill="#fff" d="m131.352 516.608 210.263-210.263 105.131 105.131L236.483 621.74z"/>
        </clipPath>
        <clipPath id="C">
            <path fill="#fff" d="M343.949 304.007 554.212 93.744l105.131 105.131L449.08 409.138z"/>
        </clipPath>
        <clipPath id="D">
            <path fill="#fff" d="m556.549 91.408 210.263-210.263L871.943-13.724 661.68 196.54z"/>
        </clipPath>
        <clipPath id="E">
            <path fill="#fff" d="m26.219 836.675 210.263-210.263 105.131 105.131L131.35 941.806z"/>
        </clipPath>
        <clipPath id="F">
            <path fill="#fff" d="m238.818 624.075 210.263-210.263 105.131 105.131L343.95 729.206z"/>
        </clipPath>
        <clipPath id="G">
            <path fill="#fff" d="m451.418 411.476 210.263-210.263 105.131 105.131L556.55 516.607z"/>
        </clipPath>
        <clipPath id="H">
            <path fill="#fff" d="M664.018 198.877 874.281-11.386 979.412 93.745 769.15 304.008z"/>
        </clipPath>
        <clipPath id="I">
            <path fill="#fff" d="m876.615-13.722 210.263-210.263 105.131 105.131L981.746 91.41z"/>
        </clipPath>
        <clipPath id="J">
            <path fill="#fff" d="M133.688 944.143 343.951 733.88l105.131 105.13-210.262 210.264z"/>
        </clipPath>
        <clipPath id="K">
            <path fill="#fff" d="M346.287 731.544 556.55 521.281l105.131 105.131-210.263 210.263z"/>
        </clipPath>
        <clipPath id="L">
            <path fill="#fff" d="M558.887 518.944 769.15 308.681l105.131 105.131-210.263 210.263z"/>
        </clipPath>
        <clipPath id="M">
            <path fill="#fff" d="M771.484 306.345 981.747 96.082l105.131 105.131-210.263 210.263z"/>
        </clipPath>
        <clipPath id="N">
            <path fill="#fff" d="m984.084 93.746 210.263-210.263 105.131 105.131-210.263 210.263z"/>
        </clipPath>
        <linearGradient id="a" x1="720" x2="720" y1="424.877" y2="834" gradientUnits="userSpaceOnUse">
            <stop stop-color="#fff"/>
            <stop offset="1" stop-color="#fff" stop-opacity="0"/>
        </linearGradient>
    </defs>
</svg>
