<svg width="723" height="419" viewBox="0 0 723 419" fill="none" xmlns="http://www.w3.org/2000/svg">
<g style="mix-blend-mode:plus-lighter" clip-path="url(#clip0_2_1276)">
<g opacity="0.3">
<g clip-path="url(#clip1_2_1276)">
<path d="M261.688 419.995C261.228 420.455 261.231 421.2 261.689 421.658L288.769 448.737C293.196 453.165 293.208 460.327 288.801 464.734C284.394 469.141 277.232 469.129 272.804 464.702L245.725 437.622C236.412 428.309 236.385 413.241 245.659 403.967C254.933 394.692 270.002 394.719 279.315 404.033L297.547 422.265C298.006 422.723 298.751 422.727 299.211 422.267C299.67 421.807 299.667 421.062 299.209 420.604L272.13 393.525C267.702 389.097 267.69 381.935 272.097 377.528C276.505 373.121 283.666 373.133 288.094 377.56L315.173 404.639C324.486 413.953 324.513 429.021 315.239 438.295C305.965 447.569 290.896 447.543 281.583 438.229L263.351 419.997C262.892 419.539 262.148 419.535 261.688 419.995Z" stroke="#00F9FB" stroke-width="1.06667" stroke-miterlimit="10" stroke-linecap="round"/>
<path d="M314.724 367.482C314.264 367.941 314.265 368.687 314.724 369.147C315.183 369.606 315.929 369.607 316.389 369.147L334.622 350.915C343.933 341.603 359.038 341.609 368.359 350.93C377.68 360.251 377.686 375.356 368.374 384.667L341.295 411.746C336.869 416.172 329.69 416.17 325.259 411.739C320.829 407.308 320.826 400.129 325.252 395.703L352.331 368.624C352.791 368.164 352.79 367.418 352.331 366.959C351.871 366.499 351.125 366.498 350.665 366.958L332.433 385.191C323.121 394.502 308.016 394.496 298.696 385.175C289.375 375.855 289.369 360.75 298.68 351.438L325.759 324.359C330.185 319.933 337.365 319.936 341.795 324.366C346.226 328.797 346.229 335.976 341.803 340.402L314.724 367.482Z" stroke="#00F9FB" stroke-width="1.06667" stroke-miterlimit="10" stroke-linecap="round"/>
</g>
<g clip-path="url(#clip2_2_1276)">
<path d="M368.276 313.407C367.816 313.867 367.82 314.612 368.278 315.07L395.357 342.149C399.785 346.577 399.796 353.738 395.389 358.145C390.982 362.553 383.82 362.541 379.393 358.113L352.314 331.034C343.001 321.721 342.974 306.652 352.248 297.378C361.522 288.104 376.59 288.131 385.904 297.444L404.136 315.677C404.594 316.135 405.339 316.139 405.799 315.679C406.259 315.219 406.256 314.474 405.798 314.015L378.718 286.936C374.291 282.509 374.279 275.347 378.686 270.94C383.093 266.533 390.255 266.544 394.683 270.972L421.762 298.051C431.075 307.364 431.102 322.433 421.828 331.707C412.554 340.981 397.485 340.954 388.172 331.641L369.939 313.409C369.481 312.95 368.736 312.947 368.276 313.407Z" stroke="#00F9FB" stroke-width="1.06667" stroke-miterlimit="10" stroke-linecap="round"/>
<path d="M421.312 260.893C420.852 261.353 420.853 262.099 421.313 262.559C421.772 263.018 422.518 263.019 422.978 262.559L441.211 244.326C450.522 235.015 465.627 235.021 474.948 244.342C484.268 253.662 484.275 268.767 474.963 278.079L447.884 305.158C443.458 309.584 436.279 309.581 431.848 305.151C427.417 300.72 427.415 293.541 431.84 289.115L458.92 262.036C459.38 261.576 459.379 260.83 458.919 260.37C458.46 259.911 457.714 259.91 457.254 260.37L439.021 278.602C429.71 287.914 414.605 287.908 405.284 278.587C395.964 269.266 395.957 254.161 405.269 244.85L432.348 217.771C436.774 213.345 443.953 213.347 448.384 217.778C452.815 222.209 452.817 229.388 448.392 233.814L421.312 260.893Z" stroke="#00F9FB" stroke-width="1.06667" stroke-miterlimit="10" stroke-linecap="round"/>
</g>
<g clip-path="url(#clip3_2_1276)">
<path d="M474.865 206.818C474.405 207.278 474.409 208.023 474.867 208.481L501.946 235.56C506.373 239.988 506.385 247.15 501.978 251.557C497.571 255.964 490.409 255.952 485.982 251.525L458.902 224.445C449.589 215.132 449.562 200.064 458.837 190.79C468.111 181.515 483.179 181.542 492.492 190.856L510.725 209.088C511.183 209.546 511.928 209.55 512.388 209.09C512.848 208.63 512.844 207.885 512.386 207.427L485.307 180.348C480.88 175.92 480.868 168.758 485.275 164.351C489.682 159.944 496.844 159.956 501.271 164.383L528.35 191.462C537.664 200.776 537.691 215.844 528.416 225.118C519.142 234.392 504.074 234.366 494.761 225.052L476.528 206.82C476.07 206.362 475.325 206.358 474.865 206.818Z" stroke="#00F9FB" stroke-width="1.06667" stroke-miterlimit="10" stroke-linecap="round"/>
<path d="M527.901 154.305C527.441 154.764 527.442 155.51 527.901 155.97C528.361 156.429 529.107 156.43 529.567 155.97L547.799 137.738C557.111 128.426 572.216 128.432 581.536 137.753C590.857 147.074 590.863 162.179 581.552 171.49L554.473 198.569C550.047 202.995 542.867 202.993 538.437 198.562C534.006 194.131 534.003 186.952 538.429 182.526L565.508 155.447C565.968 154.987 565.967 154.241 565.508 153.782C565.048 153.322 564.303 153.321 563.843 153.781L545.61 172.014C536.299 181.325 521.194 181.319 511.873 171.998C502.552 162.678 502.546 147.573 511.858 138.261L538.937 111.182C543.363 106.756 550.542 106.759 554.973 111.189C559.403 115.62 559.406 122.799 554.98 127.225L527.901 154.305Z" stroke="#00F9FB" stroke-width="1.06667" stroke-miterlimit="10" stroke-linecap="round"/>
</g>
<g clip-path="url(#clip4_2_1276)">
<path d="M581.454 100.229C580.994 100.689 580.997 101.434 581.455 101.893L608.535 128.972C612.962 133.399 612.974 140.561 608.567 144.968C604.16 149.375 596.998 149.363 592.57 144.936L565.491 117.857C556.178 108.544 556.151 93.475 565.425 84.2009C574.699 74.9269 589.768 74.9537 599.081 84.2669L617.314 102.499C617.772 102.958 618.517 102.961 618.977 102.501C619.437 102.041 619.433 101.296 618.975 100.838L591.896 73.7589C587.468 69.3314 587.457 62.1696 591.864 57.7625C596.271 53.3555 603.432 53.3671 607.86 57.7946L634.939 84.8738C644.252 94.187 644.279 109.256 635.005 118.53C625.731 127.804 610.663 127.777 601.349 118.464L583.117 100.231C582.659 99.773 581.914 99.7695 581.454 100.229Z" stroke="#00F9FB" stroke-width="1.06667" stroke-miterlimit="10" stroke-linecap="round"/>
<path d="M634.49 47.7159C634.03 48.1758 634.031 48.9217 634.49 49.3811C634.95 49.8406 635.696 49.8414 636.155 49.3815L654.388 31.149C663.699 21.8375 678.804 21.8437 688.125 31.1644C697.446 40.4851 697.452 55.5901 688.141 64.9016L661.061 91.9808C656.636 96.4067 649.456 96.404 645.025 91.9733C640.595 87.5427 640.592 80.3632 645.018 75.9373L672.097 48.8581C672.557 48.3983 672.556 47.6524 672.097 47.1929C671.637 46.7334 670.891 46.7326 670.431 47.1925L652.199 65.425C642.887 74.7366 627.782 74.7303 618.462 65.4096C609.141 56.089 609.135 40.9839 618.446 31.6724L645.525 4.5932C649.951 0.167368 657.131 0.170086 661.561 4.60069C665.992 9.0313 665.995 16.2109 661.569 20.6367L634.49 47.7159Z" stroke="#00F9FB" stroke-width="1.06667" stroke-miterlimit="10" stroke-linecap="round"/>
</g>
<g clip-path="url(#clip5_2_1276)">
<path d="M368.604 421.362C368.144 421.821 368.145 422.567 368.604 423.027C369.064 423.486 369.81 423.487 370.27 423.027L388.502 404.795C397.814 395.483 412.919 395.489 422.239 404.81C431.56 414.131 431.566 429.236 422.255 438.547L395.176 465.626C390.75 470.052 383.57 470.05 379.14 465.619C374.709 461.188 374.706 454.009 379.132 449.583L406.211 422.504C406.671 422.044 406.67 421.298 406.211 420.839C405.751 420.379 405.006 420.378 404.546 420.838L386.313 439.071C377.002 448.382 361.897 448.376 352.576 439.055C343.255 429.735 343.249 414.63 352.561 405.318L379.64 378.239C384.066 373.813 391.245 373.816 395.676 378.246C400.106 382.677 400.109 389.856 395.683 394.282L368.604 421.362Z" stroke="#00F9FB" stroke-width="1.06667" stroke-miterlimit="10" stroke-linecap="round"/>
</g>
<g clip-path="url(#clip6_2_1276)">
<path d="M422.156 367.287C421.696 367.747 421.699 368.492 422.158 368.95L449.237 396.029C453.664 400.457 453.676 407.618 449.269 412.025C444.862 416.433 437.7 416.421 433.272 411.993L406.193 384.914C396.88 375.601 396.853 360.532 406.127 351.258C415.401 341.984 430.47 342.011 439.783 351.324L458.016 369.557C458.474 370.015 459.219 370.019 459.679 369.559C460.139 369.099 460.135 368.354 459.677 367.895L432.598 340.816C428.17 336.389 428.159 329.227 432.566 324.82C436.973 320.413 444.135 320.424 448.562 324.852L475.641 351.931C484.954 361.244 484.981 376.313 475.707 385.587C466.433 394.861 451.365 394.834 442.051 385.521L423.819 367.289C423.361 366.83 422.616 366.827 422.156 367.287Z" stroke="#00F9FB" stroke-width="1.06667" stroke-miterlimit="10" stroke-linecap="round"/>
<path d="M475.192 314.773C474.732 315.233 474.733 315.979 475.192 316.439C475.652 316.898 476.398 316.899 476.857 316.439L495.09 298.206C504.401 288.895 519.507 288.901 528.827 298.222C538.148 307.542 538.154 322.647 528.843 331.959L501.763 359.038C497.338 363.464 490.158 363.461 485.727 359.031C481.297 354.6 481.294 347.421 485.72 342.995L512.799 315.916C513.259 315.456 513.258 314.71 512.799 314.25C512.339 313.791 511.593 313.79 511.133 314.25L492.901 332.482C483.589 341.794 468.484 341.788 459.164 332.467C449.843 323.146 449.837 308.041 459.148 298.73L486.227 271.651C490.653 267.225 497.833 267.227 502.263 271.658C506.694 276.089 506.697 283.268 502.271 287.694L475.192 314.773Z" stroke="#00F9FB" stroke-width="1.06667" stroke-miterlimit="10" stroke-linecap="round"/>
</g>
<g clip-path="url(#clip7_2_1276)">
<path d="M528.744 260.698C528.284 261.158 528.288 261.903 528.746 262.361L555.825 289.44C560.253 293.868 560.265 301.03 555.858 305.437C551.45 309.844 544.289 309.832 539.861 305.405L512.782 278.325C503.469 269.012 503.442 253.944 512.716 244.67C521.99 235.395 537.059 235.422 546.372 244.736L564.604 262.968C565.063 263.426 565.807 263.43 566.267 262.97C566.727 262.51 566.724 261.765 566.266 261.307L539.186 234.228C534.759 229.8 534.747 222.638 539.154 218.231C543.561 213.824 550.723 213.836 555.151 218.263L582.23 245.342C591.543 254.656 591.57 269.724 582.296 278.998C573.022 288.272 557.953 288.246 548.64 278.932L530.408 260.7C529.949 260.242 529.204 260.238 528.744 260.698Z" stroke="#00F9FB" stroke-width="1.06667" stroke-miterlimit="10" stroke-linecap="round"/>
<path d="M581.78 208.185C581.321 208.644 581.321 209.39 581.781 209.85C582.24 210.309 582.986 210.31 583.446 209.85L601.679 191.618C610.99 182.306 626.095 182.312 635.416 191.633C644.737 200.954 644.743 216.059 635.431 225.37L608.352 252.449C603.926 256.875 596.747 256.873 592.316 252.442C587.885 248.011 587.883 240.832 592.309 236.406L619.388 209.327C619.848 208.867 619.847 208.121 619.387 207.662C618.928 207.202 618.182 207.201 617.722 207.661L599.49 225.894C590.178 235.205 575.073 235.199 565.752 225.878C556.432 216.558 556.425 201.453 565.737 192.141L592.816 165.062C597.242 160.636 604.422 160.639 608.852 165.069C613.283 169.5 613.286 176.679 608.86 181.105L581.78 208.185Z" stroke="#00F9FB" stroke-width="1.06667" stroke-miterlimit="10" stroke-linecap="round"/>
</g>
<g clip-path="url(#clip8_2_1276)">
<path d="M635.333 154.109C634.873 154.569 634.877 155.314 635.335 155.772L662.414 182.852C666.842 187.279 666.853 194.441 662.446 198.848C658.039 203.255 650.877 203.243 646.45 198.816L619.371 171.737C610.057 162.423 610.031 147.355 619.305 138.081C628.579 128.807 643.647 128.834 652.961 138.147L671.193 156.379C671.651 156.838 672.396 156.841 672.856 156.381C673.316 155.921 673.313 155.176 672.854 154.718L645.775 127.639C641.348 123.211 641.336 116.049 645.743 111.642C650.15 107.235 657.312 107.247 661.739 111.675L688.819 138.754C698.132 148.067 698.159 163.136 688.885 172.41C679.611 181.684 664.542 181.657 655.229 172.344L636.996 154.111C636.538 153.653 635.793 153.649 635.333 154.109Z" stroke="#00F9FB" stroke-width="1.06667" stroke-miterlimit="10" stroke-linecap="round"/>
<path d="M688.369 101.596C687.909 102.056 687.91 102.802 688.37 103.261C688.829 103.72 689.575 103.721 690.035 103.261L708.267 85.0289C717.579 75.7173 732.684 75.7236 742.005 85.0443C751.325 94.365 751.332 109.47 742.02 118.782L714.941 145.861C710.515 150.287 703.335 150.284 698.905 145.853C694.474 141.423 694.472 134.243 698.897 129.817L725.977 102.738C726.436 102.278 726.436 101.532 725.976 101.073C725.517 100.613 724.771 100.613 724.311 101.072L706.078 119.305C696.767 128.616 681.662 128.61 672.341 119.29C663.02 109.969 663.014 94.8638 672.326 85.5523L699.405 58.4731C703.831 54.0473 711.01 54.05 715.441 58.4806C719.872 62.9112 719.874 70.0908 715.448 74.5166L688.369 101.596Z" stroke="#00F9FB" stroke-width="1.06667" stroke-miterlimit="10" stroke-linecap="round"/>
</g>
<g clip-path="url(#clip9_2_1276)">
<path d="M476.036 421.166C475.576 421.626 475.58 422.371 476.038 422.829L503.117 449.908C507.545 454.336 507.556 461.497 503.149 465.905C498.742 470.312 491.58 470.3 487.153 465.872L460.074 438.793C450.76 429.48 450.734 414.411 460.008 405.137C469.282 395.863 484.35 395.89 493.664 405.203L511.896 423.436C512.354 423.894 513.099 423.898 513.559 423.438C514.019 422.978 514.016 422.233 513.557 421.774L486.478 394.695C482.051 390.268 482.039 383.106 486.446 378.699C490.853 374.292 498.015 374.304 502.442 378.731L529.522 405.81C538.835 415.123 538.862 430.192 529.588 439.466C520.314 448.74 505.245 448.713 495.932 439.4L477.699 421.168C477.241 420.709 476.496 420.706 476.036 421.166Z" stroke="#00F9FB" stroke-width="1.06667" stroke-miterlimit="10" stroke-linecap="round"/>
<path d="M529.072 368.652C528.612 369.112 528.613 369.858 529.073 370.318C529.532 370.777 530.278 370.778 530.738 370.318L548.97 352.085C558.282 342.774 573.387 342.78 582.708 352.101C592.028 361.421 592.035 376.526 582.723 385.838L555.644 412.917C551.218 417.343 544.038 417.34 539.608 412.91C535.177 408.479 535.174 401.3 539.6 396.874L566.68 369.795C567.139 369.335 567.139 368.589 566.679 368.129C566.22 367.67 565.474 367.669 565.014 368.129L546.781 386.361C537.47 395.673 522.365 395.667 513.044 386.346C503.723 377.025 503.717 361.92 513.029 352.609L540.108 325.53C544.534 321.104 551.713 321.106 556.144 325.537C560.575 329.968 560.577 337.147 556.151 341.573L529.072 368.652Z" stroke="#00F9FB" stroke-width="1.06667" stroke-miterlimit="10" stroke-linecap="round"/>
</g>
<g clip-path="url(#clip10_2_1276)">
<path d="M582.625 314.578C582.165 315.038 582.168 315.783 582.627 316.241L609.706 343.32C614.133 347.748 614.145 354.909 609.738 359.316C605.331 363.724 598.169 363.712 593.742 359.284L566.662 332.205C557.349 322.892 557.322 307.823 566.596 298.549C575.87 289.275 590.939 289.302 600.252 298.615L618.485 316.848C618.943 317.306 619.688 317.31 620.148 316.85C620.608 316.39 620.604 315.645 620.146 315.186L593.067 288.107C588.639 283.68 588.628 276.518 593.035 272.111C597.442 267.704 604.604 267.715 609.031 272.143L636.11 299.222C645.424 308.535 645.45 323.604 636.176 332.878C626.902 342.152 611.834 342.125 602.52 332.812L584.288 314.58C583.83 314.121 583.085 314.118 582.625 314.578Z" stroke="#00F9FB" stroke-width="1.06667" stroke-miterlimit="10" stroke-linecap="round"/>
<path d="M635.661 262.064C635.201 262.524 635.202 263.27 635.661 263.73C636.121 264.189 636.867 264.19 637.327 263.73L655.559 245.497C664.871 236.186 679.976 236.192 689.296 245.513C698.617 254.833 698.623 269.938 689.312 279.25L662.232 306.329C657.807 310.755 650.627 310.752 646.196 306.322C641.766 301.891 641.763 294.712 646.189 290.286L673.268 263.207C673.728 262.747 673.727 262.001 673.268 261.541C672.808 261.082 672.062 261.081 671.603 261.541L653.37 279.773C644.058 289.085 628.953 289.079 619.633 279.758C610.312 270.437 610.306 255.332 619.617 246.021L646.697 218.942C651.122 214.516 658.302 214.518 662.733 218.949C667.163 223.38 667.166 230.559 662.74 234.985L635.661 262.064Z" stroke="#00F9FB" stroke-width="1.06667" stroke-miterlimit="10" stroke-linecap="round"/>
</g>
<g clip-path="url(#clip11_2_1276)">
<path d="M689.214 207.989C688.754 208.449 688.757 209.194 689.215 209.652L716.295 236.732C720.722 241.159 720.734 248.321 716.327 252.728C711.92 257.135 704.758 257.123 700.33 252.696L673.251 225.617C663.938 216.303 663.911 201.235 673.185 191.961C682.459 182.687 697.528 182.714 706.841 192.027L725.073 210.259C725.532 210.718 726.277 210.721 726.737 210.261C727.197 209.801 727.193 209.056 726.735 208.598L699.656 181.519C695.228 177.091 695.216 169.929 699.623 165.522C704.031 161.115 711.192 161.127 715.62 165.555L742.699 192.634C752.012 201.947 752.039 217.016 742.765 226.29C733.491 235.564 718.422 235.537 709.109 226.224L690.877 207.991C690.418 207.533 689.674 207.529 689.214 207.989Z" stroke="#00F9FB" stroke-width="1.06667" stroke-miterlimit="10" stroke-linecap="round"/>
<path d="M742.25 155.476C741.79 155.936 741.791 156.682 742.25 157.141C742.709 157.6 743.455 157.601 743.915 157.141L762.148 138.909C771.459 129.597 786.564 129.604 795.885 138.924C805.206 148.245 805.212 163.35 795.9 172.662L768.821 199.741C764.395 204.167 757.216 204.164 752.785 199.733C748.355 195.303 748.352 188.123 752.778 183.697L779.857 156.618C780.317 156.158 780.316 155.412 779.857 154.953C779.397 154.493 778.651 154.493 778.191 154.952L759.959 173.185C750.647 182.496 735.542 182.49 726.222 173.17C716.901 163.849 716.895 148.744 726.206 139.432L753.285 112.353C757.711 107.927 764.891 107.93 769.321 112.361C773.752 116.791 773.755 123.971 769.329 128.397L742.25 155.476Z" stroke="#00F9FB" stroke-width="1.06667" stroke-miterlimit="10" stroke-linecap="round"/>
</g>
<g clip-path="url(#clip12_2_1276)">
<path d="M582.952 422.532C582.492 422.992 582.493 423.738 582.952 424.198C583.411 424.657 584.157 424.658 584.617 424.198L602.85 405.965C612.161 396.654 627.266 396.66 636.587 405.981C645.908 415.301 645.914 430.406 636.602 439.718L609.523 466.797C605.097 471.223 597.918 471.22 593.487 466.79C589.057 462.359 589.054 455.18 593.48 450.754L620.559 423.675C621.019 423.215 621.018 422.469 620.559 422.009C620.099 421.55 619.353 421.549 618.893 422.009L600.661 440.241C591.349 449.553 576.244 449.547 566.924 440.226C557.603 430.905 557.597 415.8 566.908 406.489L593.987 379.41C598.413 374.984 605.593 374.987 610.023 379.417C614.454 383.848 614.457 391.027 610.031 395.453L582.952 422.532Z" stroke="#00F9FB" stroke-width="1.06667" stroke-miterlimit="10" stroke-linecap="round"/>
</g>
<g clip-path="url(#clip13_2_1276)">
<path d="M636.504 368.457C636.044 368.917 636.048 369.662 636.506 370.121L663.585 397.2C668.013 401.627 668.024 408.789 663.617 413.196C659.21 417.603 652.048 417.592 647.621 413.164L620.542 386.085C611.229 376.772 611.202 361.703 620.476 352.429C629.75 343.155 644.818 343.182 654.132 352.495L672.364 370.727C672.822 371.186 673.567 371.189 674.027 370.729C674.487 370.269 674.484 369.524 674.026 369.066L646.946 341.987C642.519 337.559 642.507 330.398 646.914 325.991C651.321 321.583 658.483 321.595 662.911 326.023L689.99 353.102C699.303 362.415 699.33 377.484 690.056 386.758C680.782 396.032 665.713 396.005 656.4 386.692L638.167 368.459C637.709 368.001 636.964 367.997 636.504 368.457Z" stroke="#00F9FB" stroke-width="1.06667" stroke-miterlimit="10" stroke-linecap="round"/>
<path d="M689.54 315.944C689.08 316.404 689.081 317.15 689.541 317.609C690 318.069 690.746 318.069 691.206 317.61L709.439 299.377C718.75 290.065 733.855 290.072 743.176 299.392C752.496 308.713 752.503 323.818 743.191 333.13L716.112 360.209C711.686 364.635 704.507 364.632 700.076 360.201C695.645 355.771 695.643 348.591 700.068 344.165L727.148 317.086C727.608 316.626 727.607 315.88 727.147 315.421C726.688 314.961 725.942 314.961 725.482 315.421L707.249 333.653C697.938 342.965 682.833 342.958 673.512 333.638C664.192 324.317 664.185 309.212 673.497 299.9L700.576 272.821C705.002 268.395 712.181 268.398 716.612 272.829C721.043 277.259 721.045 284.439 716.62 288.865L689.54 315.944Z" stroke="#00F9FB" stroke-width="1.06667" stroke-miterlimit="10" stroke-linecap="round"/>
</g>
<g clip-path="url(#clip14_2_1276)">
<path d="M743.093 261.869C742.633 262.329 742.637 263.074 743.095 263.532L770.174 290.611C774.601 295.039 774.613 302.201 770.206 306.608C765.799 311.015 758.637 311.003 754.21 306.576L727.13 279.497C717.817 270.183 717.79 255.115 727.065 245.841C736.339 236.567 751.407 236.593 760.72 245.907L778.953 264.139C779.411 264.597 780.156 264.601 780.616 264.141C781.076 263.681 781.072 262.936 780.614 262.478L753.535 235.399C749.108 230.971 749.096 223.809 753.503 219.402C757.91 214.995 765.072 215.007 769.499 219.434L796.578 246.514C805.892 255.827 805.919 270.895 796.644 280.169C787.37 289.444 772.302 289.417 762.989 280.103L744.756 261.871C744.298 261.413 743.553 261.409 743.093 261.869Z" stroke="#00F9FB" stroke-width="1.06667" stroke-miterlimit="10" stroke-linecap="round"/>
</g>
<g clip-path="url(#clip15_2_1276)">
<path d="M690.385 422.338C689.925 422.798 689.928 423.543 690.386 424.001L717.466 451.08C721.893 455.507 721.905 462.669 717.498 467.076C713.091 471.483 705.929 471.472 701.501 467.044L674.422 439.965C665.109 430.652 665.082 415.583 674.356 406.309C683.63 397.035 698.699 397.062 708.012 406.375L726.245 424.608C726.703 425.066 727.448 425.069 727.908 424.609C728.368 424.149 728.364 423.405 727.906 422.946L700.827 395.867C696.399 391.44 696.388 384.278 700.795 379.871C705.202 375.464 712.363 375.475 716.791 379.903L743.87 406.982C753.183 416.295 753.21 431.364 743.936 440.638C734.662 449.912 719.594 449.885 710.28 440.572L692.048 422.339C691.59 421.881 690.845 421.878 690.385 422.338Z" stroke="#00F9FB" stroke-width="1.06667" stroke-miterlimit="10" stroke-linecap="round"/>
<path d="M743.421 369.824C742.961 370.284 742.962 371.03 743.421 371.489C743.881 371.949 744.627 371.95 745.086 371.49L763.319 353.257C772.63 343.946 787.735 343.952 797.056 353.273C806.377 362.593 806.383 377.698 797.072 387.01L769.992 414.089C765.567 418.515 758.387 418.512 753.956 414.082C749.526 409.651 749.523 402.471 753.949 398.046L781.028 370.966C781.488 370.507 781.487 369.761 781.028 369.301C780.568 368.842 779.822 368.841 779.362 369.301L761.13 387.533C751.818 396.845 736.713 396.839 727.393 387.518C718.072 378.197 718.066 363.092 727.377 353.781L754.456 326.701C758.882 322.276 766.062 322.278 770.492 326.709C774.923 331.14 774.926 338.319 770.5 342.745L743.421 369.824Z" stroke="#00F9FB" stroke-width="1.06667" stroke-miterlimit="10" stroke-linecap="round"/>
</g>
<g clip-path="url(#clip16_2_1276)">
</g>
</g>
<g opacity="0.3">
<g clip-path="url(#clip17_2_1276)">
<path d="M-61.2747 97.0328C-61.7347 97.4927 -61.7311 98.2377 -61.273 98.6958L-34.1938 125.775C-29.7662 130.203 -29.7546 137.364 -34.1616 141.771C-38.5687 146.178 -45.7305 146.167 -50.158 141.739L-77.2372 114.66C-86.5504 105.347 -86.5773 90.2783 -77.3032 81.0043C-68.0292 71.7302 -52.9606 71.757 -43.6474 81.0702L-25.4148 99.3028C-24.9566 99.761 -24.2117 99.7645 -23.7517 99.3045C-23.2918 98.8446 -23.2953 98.0996 -23.7535 97.6414L-50.8327 70.5622C-55.2602 66.1347 -55.2718 58.9729 -50.8648 54.5659C-46.4577 50.1588 -39.2959 50.1705 -34.8684 54.598L-7.78921 81.6772C1.52401 90.9904 1.55084 106.059 -7.72322 115.333C-16.9973 124.607 -32.0659 124.58 -41.3791 115.267L-59.6116 97.0345C-60.0698 96.5763 -60.8147 96.5728 -61.2747 97.0328Z" stroke="#00F9FB" stroke-width="1.06667" stroke-miterlimit="10" stroke-linecap="round"/>
<path d="M-8.23864 44.5192C-8.69852 44.9791 -8.6977 45.725 -8.23824 46.1845C-7.77877 46.6439 -7.03288 46.6448 -6.573 46.1849L11.6595 27.9523C20.9711 18.6408 36.0761 18.6471 45.3968 27.9677C54.7174 37.2884 54.7237 52.3934 45.4122 61.705L18.333 88.7842C13.9071 93.21 6.72757 93.2073 2.29696 88.7767C-2.13365 84.3461 -2.13637 77.1665 2.28947 72.7407L29.3687 45.6615C29.8285 45.2016 29.8277 44.4557 29.3683 43.9963C28.9088 43.5368 28.1629 43.536 27.703 43.9958L9.47049 62.2284C0.158954 71.5399 -14.9461 71.5337 -24.2667 62.213C-33.5874 52.8923 -33.5937 37.7873 -24.2821 28.4757L2.79706 1.39655C7.22289 -3.02928 14.4025 -3.02657 18.8331 1.40404C23.2637 5.83465 23.2664 13.0142 18.8406 17.44L-8.23864 44.5192Z" stroke="#00F9FB" stroke-width="1.06667" stroke-miterlimit="10" stroke-linecap="round"/>
</g>
<g clip-path="url(#clip18_2_1276)">
<path d="M45.314 -9.55549C44.8541 -9.09553 44.8576 -8.3506 45.3158 -7.89241L72.395 19.1868C76.8225 23.6143 76.8341 30.7761 72.4271 35.1832C68.02 39.5902 60.8582 39.5786 56.4307 35.1511L29.3515 8.07186C20.0383 -1.24137 20.0115 -16.3099 29.2855 -25.584C38.5596 -34.8581 53.6281 -34.8312 62.9414 -25.518L81.1739 -7.28548C81.6321 -6.82729 82.377 -6.82378 82.837 -7.28374C83.2969 -7.74369 83.2934 -8.48862 82.8352 -8.94682L55.756 -36.026C51.3285 -40.4535 51.3169 -47.6154 55.7239 -52.0224C60.131 -56.4295 67.2928 -56.4178 71.7203 -51.9903L98.7995 -24.9111C108.113 -15.5979 108.14 -0.529283 98.8655 8.74477C89.5914 18.0188 74.5229 17.992 65.2096 8.67879L46.9771 -9.55375C46.5189 -10.0119 45.774 -10.0154 45.314 -9.55549Z" stroke="#00F9FB" stroke-width="1.06667" stroke-miterlimit="10" stroke-linecap="round"/>
</g>
<g clip-path="url(#clip19_2_1276)">
<path d="M-60.9469 204.988C-61.4068 205.448 -61.406 206.194 -60.9465 206.653C-60.4871 207.112 -59.7412 207.113 -59.2813 206.653L-41.0487 188.421C-31.7372 179.109 -16.6322 179.116 -7.31151 188.436C2.00917 197.757 2.01544 212.862 -7.29611 222.173L-34.3753 249.253C-38.8011 253.679 -45.9807 253.676 -50.4113 249.245C-54.8419 244.815 -54.8446 237.635 -50.4188 233.209L-23.3396 206.13C-22.8797 205.67 -22.8805 204.924 -23.34 204.465C-23.7995 204.005 -24.5454 204.004 -25.0052 204.464L-43.2378 222.697C-52.5493 232.008 -67.6543 232.002 -76.975 222.681C-86.2957 213.361 -86.302 198.256 -76.9904 188.944L-49.9112 161.865C-45.4854 157.439 -38.3058 157.442 -33.8752 161.873C-29.4446 166.303 -29.4419 173.483 -33.8677 177.909L-60.9469 204.988Z" stroke="#00F9FB" stroke-width="1.06667" stroke-miterlimit="10" stroke-linecap="round"/>
</g>
<g clip-path="url(#clip20_2_1276)">
<path d="M-7.39427 150.913C-7.85423 151.373 -7.85072 152.118 -7.39253 152.576L19.6867 179.655C24.1142 184.082 24.1258 191.244 19.7188 195.651C15.3117 200.058 8.14992 200.047 3.72241 195.619L-23.3568 168.54C-32.67 159.227 -32.6968 144.158 -23.4228 134.884C-14.1487 125.61 0.919854 125.637 10.2331 134.95L28.4656 153.183C28.9238 153.641 29.6687 153.644 30.1287 153.184C30.5887 152.724 30.5851 151.98 30.1269 151.521L3.04775 124.442C-1.37976 120.015 -1.39142 112.853 3.01563 108.446C7.42268 104.039 14.5845 104.05 19.012 108.478L46.0912 135.557C55.4044 144.87 55.4313 159.939 46.1572 169.213C36.8831 178.487 21.8146 178.46 12.5013 169.147L-5.73119 150.914C-6.18938 150.456 -6.93431 150.453 -7.39427 150.913Z" stroke="#00F9FB" stroke-width="1.06667" stroke-miterlimit="10" stroke-linecap="round"/>
<path d="M45.6418 98.3991C45.1819 98.859 45.1827 99.6049 45.6422 100.064C46.1016 100.524 46.8475 100.525 47.3074 100.065L65.5399 81.8322C74.8515 72.5207 89.9565 72.527 99.2772 81.8476C108.598 91.1683 108.604 106.273 99.2926 115.585L72.2134 142.664C67.7875 147.09 60.608 147.087 56.1774 142.657C51.7468 138.226 51.744 131.046 56.1699 126.621L83.2491 99.5414C83.7089 99.0815 83.7081 98.3356 83.2487 97.8761C82.7892 97.4167 82.0433 97.4159 81.5834 97.8757L63.3509 116.108C54.0394 125.42 38.9343 125.414 29.6137 116.093C20.293 106.772 20.2867 91.6672 29.5983 82.3556L56.6775 55.2764C61.1033 50.8506 68.2829 50.8533 72.7135 55.2839C77.1441 59.7145 77.1468 66.8941 72.721 71.3199L45.6418 98.3991Z" stroke="#00F9FB" stroke-width="1.06667" stroke-miterlimit="10" stroke-linecap="round"/>
</g>
<g clip-path="url(#clip21_2_1276)">
<path d="M99.1934 44.3245C98.7335 44.7845 98.737 45.5294 99.1952 45.9876L126.274 73.0668C130.702 77.4943 130.714 84.6561 126.307 89.0632C121.899 93.4702 114.738 93.4586 110.31 89.0311L83.2309 61.9519C73.9177 52.6386 73.8909 37.5701 83.1649 28.296C92.439 19.022 107.508 19.0488 116.821 28.362L135.053 46.5945C135.512 47.0527 136.256 47.0562 136.716 46.5963C137.176 46.1363 137.173 45.3914 136.715 44.9332L109.635 17.854C105.208 13.4265 105.196 6.26465 109.603 1.8576C114.01 -2.54945 121.172 -2.5378 125.6 1.88972L152.679 28.9689C161.992 38.2821 162.019 53.3507 152.745 62.6248C143.471 71.8988 128.402 71.872 119.089 62.5588L100.857 44.3263C100.398 43.8681 99.6534 43.8646 99.1934 44.3245Z" stroke="#00F9FB" stroke-width="1.06667" stroke-miterlimit="10" stroke-linecap="round"/>
<path d="M152.229 -8.189C151.77 -7.72912 151.77 -6.98323 152.23 -6.52377C152.689 -6.06431 153.435 -6.06349 153.895 -6.52337L172.128 -24.7559C181.439 -34.0675 196.544 -34.0612 205.865 -24.7405C215.186 -15.4198 215.192 -0.314815 205.88 8.99673L178.801 36.0759C174.375 40.5018 167.196 40.4991 162.765 36.0684C158.334 31.6378 158.332 24.4583 162.758 20.0324L189.837 -7.04677C190.297 -7.50664 190.296 -8.25252 189.836 -8.71199C189.377 -9.17147 188.631 -9.17228 188.171 -8.71241L169.939 9.52013C160.627 18.8317 145.522 18.8254 136.201 9.50474C126.881 0.184054 126.874 -14.921 136.186 -24.2325L163.265 -51.3117C167.691 -55.7375 174.871 -55.7348 179.301 -51.3042C183.732 -46.8736 183.735 -39.694 179.309 -35.2682L152.229 -8.189Z" stroke="#00F9FB" stroke-width="1.06667" stroke-miterlimit="10" stroke-linecap="round"/>
</g>
<g clip-path="url(#clip22_2_1276)">
<path d="M-60.1036 311.381C-60.5635 311.841 -60.56 312.586 -60.1018 313.044L-33.0226 340.124C-28.5951 344.551 -28.5834 351.713 -32.9905 356.12C-37.3975 360.527 -44.5594 360.515 -48.9869 356.088L-76.0661 329.009C-85.3793 319.696 -85.4061 304.627 -76.1321 295.353C-66.858 286.079 -51.7894 286.106 -42.4762 295.419L-24.2437 313.651C-23.7855 314.11 -23.0406 314.113 -22.5806 313.653C-22.1206 313.193 -22.1241 312.448 -22.5823 311.99L-49.6615 284.911C-54.0891 280.483 -54.1007 273.322 -49.6937 268.914C-45.2866 264.507 -38.1248 264.519 -33.6973 268.947L-6.61808 296.026C2.69514 305.339 2.72197 320.408 -6.55209 329.682C-15.8261 338.956 -30.8947 338.929 -40.2079 329.616L-58.4405 311.383C-58.8987 310.925 -59.6436 310.921 -60.1036 311.381Z" stroke="#00F9FB" stroke-width="1.06667" stroke-miterlimit="10" stroke-linecap="round"/>
<path d="M-7.0675 258.868C-7.52738 259.328 -7.52656 260.074 -7.0671 260.533C-6.60763 260.993 -5.86174 260.994 -5.40186 260.534L12.8307 242.301C22.1422 232.99 37.2472 232.996 46.5679 242.317C55.8886 251.637 55.8949 266.742 46.5833 276.054L19.5041 303.133C15.0783 307.559 7.89871 307.556 3.4681 303.125C-0.962507 298.695 -0.965227 291.515 3.46061 287.089L30.5398 260.01C30.9997 259.55 30.9989 258.804 30.5394 258.345C30.0799 257.886 29.334 257.885 28.8742 258.345L10.6416 276.577C1.33009 285.889 -13.7749 285.882 -23.0956 276.562C-32.4163 267.241 -32.4225 252.136 -23.111 242.825L3.9682 215.745C8.39403 211.319 15.5736 211.322 20.0042 215.753C24.4348 220.183 24.4375 227.363 20.0117 231.789L-7.0675 258.868Z" stroke="#00F9FB" stroke-width="1.06667" stroke-miterlimit="10" stroke-linecap="round"/>
</g>
<g clip-path="url(#clip23_2_1276)">
<path d="M46.4852 204.793C46.0252 205.253 46.0287 205.998 46.4869 206.456L73.5661 233.535C77.9936 237.962 78.0053 245.124 73.5982 249.531C69.1912 253.938 62.0294 253.927 57.6018 249.499L30.5226 222.42C21.2094 213.107 21.1826 198.038 30.4567 188.764C39.7307 179.49 54.7993 179.517 64.1125 188.83L82.345 207.063C82.8032 207.521 83.5482 207.524 84.0081 207.064C84.4681 206.604 84.4646 205.86 84.0064 205.401L56.9272 178.322C52.4997 173.895 52.488 166.733 56.8951 162.326C61.3021 157.919 68.4639 157.93 72.8914 162.358L99.9706 189.437C109.284 198.75 109.311 213.819 100.037 223.093C90.7626 232.367 75.694 232.34 66.3808 223.027L48.1482 204.794C47.69 204.336 46.9451 204.333 46.4852 204.793Z" stroke="#00F9FB" stroke-width="1.06667" stroke-miterlimit="10" stroke-linecap="round"/>
<path d="M99.5212 152.279C99.0613 152.739 99.0622 153.485 99.5216 153.944C99.9811 154.404 100.727 154.405 101.187 153.945L119.419 135.712C128.731 126.401 143.836 126.407 153.157 135.728C162.477 145.048 162.484 160.153 153.172 169.465L126.093 196.544C121.667 200.97 114.487 200.967 110.057 196.537C105.626 192.106 105.623 184.926 110.049 180.501L137.129 153.421C137.588 152.961 137.588 152.216 137.128 151.756C136.669 151.297 135.923 151.296 135.463 151.756L117.23 169.988C107.919 179.3 92.8138 179.294 83.4931 169.973C74.1724 160.652 74.1662 145.547 83.4777 136.236L110.557 109.156C114.983 104.731 122.162 104.733 126.593 109.164C131.024 113.595 131.026 120.774 126.6 125.2L99.5212 152.279Z" stroke="#00F9FB" stroke-width="1.06667" stroke-miterlimit="10" stroke-linecap="round"/>
</g>
<g clip-path="url(#clip24_2_1276)">
<path d="M153.074 98.2035C152.614 98.6635 152.617 99.4084 153.076 99.8666L180.155 126.946C184.582 131.373 184.594 138.535 180.187 142.942C175.78 147.349 168.618 147.338 164.191 142.91L137.111 115.831C127.798 106.518 127.771 91.4491 137.045 82.175C146.319 72.901 161.388 72.9278 170.701 82.241L188.934 100.474C189.392 100.932 190.137 100.935 190.597 100.475C191.057 100.015 191.053 99.2704 190.595 98.8122L163.516 71.733C159.088 67.3055 159.077 60.1437 163.484 55.7366C167.891 51.3296 175.053 51.3412 179.48 55.7688L206.559 82.848C215.873 92.1612 215.899 107.23 206.625 116.504C197.351 125.778 182.283 125.751 172.97 116.438L154.737 98.2053C154.279 97.7471 153.534 97.7436 153.074 98.2035Z" stroke="#00F9FB" stroke-width="1.06667" stroke-miterlimit="10" stroke-linecap="round"/>
<path d="M206.11 45.69C205.65 46.1499 205.651 46.8958 206.11 47.3553C206.57 47.8147 207.316 47.8155 207.776 47.3557L226.008 29.1231C235.32 19.8116 250.425 19.8179 259.745 29.1385C269.066 38.4592 269.072 53.5642 259.761 62.8758L232.682 89.955C228.256 94.3808 221.076 94.3781 216.646 89.9475C212.215 85.5169 212.212 78.3373 216.638 73.9115L243.717 46.8323C244.177 46.3724 244.176 45.6265 243.717 45.167C243.257 44.7076 242.511 44.7068 242.052 45.1666L223.819 63.3992C214.508 72.7107 199.402 72.7044 190.082 63.3838C180.761 54.0631 180.755 38.9581 190.066 29.6465L217.146 2.56733C221.571 -1.85851 228.751 -1.85579 233.182 2.57482C237.612 7.00543 237.615 14.185 233.189 18.6108L206.11 45.69Z" stroke="#00F9FB" stroke-width="1.06667" stroke-miterlimit="10" stroke-linecap="round"/>
</g>
<g clip-path="url(#clip25_2_1276)">
<path d="M259.663 -8.38447C259.203 -7.92451 259.206 -7.17958 259.664 -6.72139L286.744 20.3578C291.171 24.7853 291.183 31.9472 286.776 36.3542C282.369 40.7613 275.207 40.7496 270.779 36.3221L243.7 9.24288C234.387 -0.0703464 234.36 -15.1389 243.634 -24.413C252.908 -33.687 267.977 -33.6602 277.29 -24.347L295.522 -6.11446C295.981 -5.65626 296.726 -5.65276 297.186 -6.11272C297.646 -6.57267 297.642 -7.31759 297.184 -7.7758L270.105 -34.855C265.677 -39.2825 265.665 -46.4443 270.073 -50.8514C274.48 -55.2584 281.641 -55.2468 286.069 -50.8193L313.148 -23.7401C322.461 -14.4268 322.488 0.641737 313.214 9.91579C303.94 19.1899 288.871 19.163 279.558 9.84981L261.326 -8.38273C260.867 -8.84092 260.123 -8.84443 259.663 -8.38447Z" stroke="#00F9FB" stroke-width="1.06667" stroke-miterlimit="10" stroke-linecap="round"/>
</g>
<g clip-path="url(#clip26_2_1276)">
<path d="M-6.22312 365.261C-6.68308 365.721 -6.67957 366.466 -6.22138 366.924L20.8578 394.003C25.2853 398.43 25.297 405.592 20.89 409.999C16.4829 414.406 9.32108 414.395 4.89356 409.967L-22.1856 382.888C-31.4989 373.575 -31.5257 358.506 -22.2516 349.232C-12.9776 339.958 2.091 339.985 11.4042 349.298L29.6368 367.531C30.095 367.989 30.8399 367.992 31.2999 367.532C31.7598 367.072 31.7563 366.328 31.2981 365.869L4.2189 338.79C-0.208615 334.363 -0.22027 327.201 4.18678 322.794C8.59383 318.387 15.7557 318.398 20.1832 322.826L47.2624 349.905C56.5756 359.218 56.6024 374.287 47.3284 383.561C38.0543 392.835 22.9857 392.808 13.6725 383.495L-4.56004 365.262C-5.01823 364.804 -5.76316 364.801 -6.22312 365.261Z" stroke="#00F9FB" stroke-width="1.06667" stroke-miterlimit="10" stroke-linecap="round"/>
<path d="M46.8129 312.747C46.353 313.207 46.3538 313.953 46.8133 314.412C47.2728 314.872 48.0187 314.873 48.4785 314.413L66.7111 296.18C76.0226 286.869 91.1277 286.875 100.448 296.196C109.769 305.516 109.775 320.621 100.464 329.933L73.3845 357.012C68.9587 361.438 61.7791 361.435 57.3485 357.005C52.9179 352.574 52.9152 345.394 57.341 340.969L84.4202 313.889C84.8801 313.43 84.8793 312.684 84.4198 312.224C83.9603 311.765 83.2144 311.764 82.7546 312.224L64.522 330.456C55.2105 339.768 40.1055 339.762 30.7848 330.441C21.4641 321.12 21.4579 306.015 30.7694 296.704L57.8486 269.624C62.2744 265.199 69.454 265.201 73.8846 269.632C78.3152 274.063 78.3179 281.242 73.8921 285.668L46.8129 312.747Z" stroke="#00F9FB" stroke-width="1.06667" stroke-miterlimit="10" stroke-linecap="round"/>
</g>
<g clip-path="url(#clip27_2_1276)">
<path d="M100.366 258.673C99.9056 259.133 99.9091 259.878 100.367 260.336L127.447 287.415C131.874 291.842 131.886 299.004 127.479 303.411C123.072 307.818 115.91 307.807 111.482 303.379L84.403 276.3C75.0898 266.987 75.063 251.918 84.3371 242.644C93.6111 233.37 108.68 233.397 117.993 242.71L136.225 260.943C136.684 261.401 137.429 261.404 137.889 260.944C138.348 260.484 138.345 259.74 137.887 259.281L110.808 232.202C106.38 227.775 106.368 220.613 110.775 216.206C115.183 211.799 122.344 211.81 126.772 216.238L153.851 243.317C163.164 252.63 163.191 267.699 153.917 276.973C144.643 286.247 129.574 286.22 120.261 276.907L102.029 258.674C101.57 258.216 100.826 258.213 100.366 258.673Z" stroke="#00F9FB" stroke-width="1.06667" stroke-miterlimit="10" stroke-linecap="round"/>
<path d="M153.402 206.159C152.942 206.619 152.943 207.365 153.402 207.824C153.861 208.284 154.607 208.285 155.067 207.825L173.3 189.592C182.611 180.281 197.716 180.287 207.037 189.608C216.358 198.928 216.364 214.033 207.052 223.345L179.973 250.424C175.547 254.85 168.368 254.847 163.937 250.417C159.507 245.986 159.504 238.806 163.93 234.381L191.009 207.301C191.469 206.842 191.468 206.096 191.008 205.636C190.549 205.177 189.803 205.176 189.343 205.636L171.111 223.868C161.799 233.18 146.694 233.174 137.373 223.853C128.053 214.532 128.047 199.427 137.358 190.116L164.437 163.036C168.863 158.611 176.043 158.613 180.473 163.044C184.904 167.475 184.907 174.654 180.481 179.08L153.402 206.159Z" stroke="#00F9FB" stroke-width="1.06667" stroke-miterlimit="10" stroke-linecap="round"/>
</g>
<g clip-path="url(#clip28_2_1276)">
<path d="M206.953 152.083C206.493 152.543 206.497 153.288 206.955 153.747L234.034 180.826C238.462 185.253 238.473 192.415 234.066 196.822C229.659 201.229 222.498 201.217 218.07 196.79L190.991 169.711C181.678 160.398 181.651 145.329 190.925 136.055C200.199 126.781 215.267 126.808 224.581 136.121L242.813 154.353C243.271 154.812 244.016 154.815 244.476 154.355C244.936 153.895 244.933 153.15 244.475 152.692L217.395 125.613C212.968 121.185 212.956 114.024 217.363 109.617C221.77 105.209 228.932 105.221 233.36 109.649L260.439 136.728C269.752 146.041 269.779 161.11 260.505 170.384C251.231 179.658 236.162 179.631 226.849 170.318L208.616 152.085C208.158 151.627 207.413 151.623 206.953 152.083Z" stroke="#00F9FB" stroke-width="1.06667" stroke-miterlimit="10" stroke-linecap="round"/>
<path d="M259.989 99.5699C259.529 100.03 259.53 100.776 259.99 101.235C260.449 101.695 261.195 101.695 261.655 101.236L279.888 83.003C289.199 73.6915 304.304 73.6977 313.625 83.0184C322.945 92.3391 322.952 107.444 313.64 116.756L286.561 143.835C282.135 148.261 274.956 148.258 270.525 143.827C266.094 139.397 266.092 132.217 270.517 127.791L297.597 100.712C298.057 100.252 298.056 99.5064 297.596 99.0469C297.137 98.5874 296.391 98.5866 295.931 99.0465L277.698 117.279C268.387 126.591 253.282 126.584 243.961 117.264C234.641 107.943 234.634 92.8379 243.946 83.5264L271.025 56.4472C275.451 52.0214 282.63 52.0241 287.061 56.4547C291.492 60.8853 291.494 68.0649 287.069 72.4907L259.989 99.5699Z" stroke="#00F9FB" stroke-width="1.06667" stroke-miterlimit="10" stroke-linecap="round"/>
</g>
<g clip-path="url(#clip29_2_1276)">
<path d="M313.542 45.4952C313.082 45.9551 313.086 46.7001 313.544 47.1583L340.623 74.2374C345.05 78.665 345.062 85.8268 340.655 90.2338C336.248 94.6409 329.086 94.6292 324.659 90.2017L297.58 63.1225C288.266 53.8093 288.239 38.7407 297.514 29.4667C306.788 20.1926 321.856 20.2194 331.169 29.5326L349.402 47.7652C349.86 48.2234 350.605 48.2269 351.065 47.7669C351.525 47.307 351.521 46.562 351.063 46.1038L323.984 19.0246C319.557 14.5971 319.545 7.43531 323.952 3.02826C328.359 -1.37879 335.521 -1.36713 339.948 3.06038L367.028 30.1396C376.341 39.4528 376.368 54.5214 367.094 63.7954C357.819 73.0695 342.751 73.0427 333.438 63.7294L315.205 45.4969C314.747 45.0387 314.002 45.0352 313.542 45.4952Z" stroke="#00F9FB" stroke-width="1.06667" stroke-miterlimit="10" stroke-linecap="round"/>
<path d="M366.578 -7.01835C366.118 -6.55847 366.119 -5.81258 366.578 -5.35312C367.038 -4.89365 367.784 -4.89283 368.244 -5.35271L386.476 -23.5853C395.788 -32.8968 410.893 -32.8905 420.213 -23.5698C429.534 -14.2492 429.54 0.855838 420.229 10.1674L393.15 37.2466C388.724 41.6724 381.544 41.6697 377.114 37.2391C372.683 32.8085 372.68 25.6289 377.106 21.2031L404.185 -5.87612C404.645 -6.33599 404.644 -7.08187 404.185 -7.54134C403.725 -8.00082 402.98 -8.00162 402.52 -7.54176L384.287 10.6908C374.976 20.0023 359.871 19.9961 350.55 10.6754C341.229 1.35471 341.223 -13.7503 350.535 -23.0618L377.614 -50.141C382.04 -54.5669 389.219 -54.5642 393.65 -50.1336C398.08 -45.7029 398.083 -38.5234 393.657 -34.0975L366.578 -7.01835Z" stroke="#00F9FB" stroke-width="1.06667" stroke-miterlimit="10" stroke-linecap="round"/>
</g>
<g clip-path="url(#clip30_2_1276)">
<path d="M47.6563 419.141C47.1963 419.601 47.1999 420.346 47.658 420.804L74.7372 447.883C79.1648 452.311 79.1764 459.473 74.7694 463.88C70.3623 468.287 63.2005 468.275 58.773 463.848L31.6938 436.769C22.3806 427.455 22.3537 412.387 31.6278 403.113C40.9018 393.839 55.9704 393.865 65.2836 403.179L83.5162 421.411C83.9744 421.869 84.7193 421.873 85.1793 421.413C85.6392 420.953 85.6357 420.208 85.1775 419.75L58.0983 392.671C53.6708 388.243 53.6592 381.081 58.0662 376.674C62.4733 372.267 69.6351 372.279 74.0626 376.706L101.142 403.786C110.455 413.099 110.482 428.167 101.208 437.441C91.9337 446.715 76.8651 446.689 67.5519 437.375L49.3194 419.143C48.8612 418.685 48.1163 418.681 47.6563 419.141Z" stroke="#00F9FB" stroke-width="1.06667" stroke-miterlimit="10" stroke-linecap="round"/>
<path d="M100.692 366.628C100.232 367.088 100.233 367.833 100.693 368.293C101.152 368.752 101.898 368.753 102.358 368.293L120.591 350.061C129.902 340.749 145.007 340.755 154.328 350.076C163.648 359.397 163.655 374.502 154.343 383.813L127.264 410.893C122.838 415.318 115.659 415.316 111.228 410.885C106.797 406.454 106.795 399.275 111.22 394.849L138.3 367.77C138.76 367.31 138.759 366.564 138.299 366.105C137.84 365.645 137.094 365.644 136.634 366.104L118.401 384.337C109.09 393.648 93.9849 393.642 84.6642 384.321C75.3435 375.001 75.3373 359.896 84.6488 350.584L111.728 323.505C116.154 319.079 123.333 319.082 127.764 323.512C132.195 327.943 132.197 335.123 127.772 339.548L100.692 366.628Z" stroke="#00F9FB" stroke-width="1.06667" stroke-miterlimit="10" stroke-linecap="round"/>
</g>
<g clip-path="url(#clip31_2_1276)">
<path d="M154.245 312.553C153.785 313.013 153.789 313.757 154.247 314.216L181.326 341.295C185.753 345.722 185.765 352.884 181.358 357.291C176.951 361.698 169.789 361.687 165.362 357.259L138.282 330.18C128.969 320.867 128.942 305.798 138.216 296.524C147.491 287.25 162.559 287.277 171.872 296.59L190.105 314.823C190.563 315.281 191.308 315.284 191.768 314.824C192.228 314.364 192.224 313.619 191.766 313.161L164.687 286.082C160.26 281.655 160.248 274.493 164.655 270.086C169.062 265.679 176.224 265.69 180.651 270.118L207.73 297.197C217.044 306.51 217.071 321.579 207.796 330.853C198.522 340.127 183.454 340.1 174.141 330.787L155.908 312.554C155.45 312.096 154.705 312.093 154.245 312.553Z" stroke="#00F9FB" stroke-width="1.06667" stroke-miterlimit="10" stroke-linecap="round"/>
<path d="M207.281 260.039C206.821 260.499 206.822 261.245 207.281 261.704C207.741 262.164 208.487 262.165 208.947 261.705L227.179 243.472C236.491 234.161 251.596 234.167 260.916 243.488C270.237 252.808 270.243 267.913 260.932 277.225L233.853 304.304C229.427 308.73 222.247 308.727 217.817 304.297C213.386 299.866 213.383 292.686 217.809 288.261L244.888 261.181C245.348 260.722 245.347 259.976 244.888 259.516C244.428 259.057 243.683 259.056 243.223 259.516L224.99 277.748C215.679 287.06 200.574 287.054 191.253 277.733C181.932 268.412 181.926 253.307 191.238 243.996L218.317 216.916C222.743 212.491 229.922 212.493 234.353 216.924C238.783 221.355 238.786 228.534 234.36 232.96L207.281 260.039Z" stroke="#00F9FB" stroke-width="1.06667" stroke-miterlimit="10" stroke-linecap="round"/>
</g>
<g clip-path="url(#clip32_2_1276)">
<path d="M260.834 205.964C260.374 206.424 260.377 207.169 260.835 207.627L287.915 234.706C292.342 239.134 292.354 246.296 287.947 250.703C283.54 255.11 276.378 255.098 271.95 250.671L244.871 223.592C235.558 214.278 235.531 199.21 244.805 189.936C254.079 180.662 269.148 180.688 278.461 190.002L296.694 208.234C297.152 208.692 297.897 208.696 298.357 208.236C298.817 207.776 298.813 207.031 298.355 206.573L271.276 179.494C266.848 175.066 266.837 167.904 271.244 163.497C275.651 159.09 282.812 159.102 287.24 163.529L314.319 190.609C323.632 199.922 323.659 214.99 314.385 224.264C305.111 233.538 290.043 233.512 280.729 224.198L262.497 205.966C262.039 205.508 261.294 205.504 260.834 205.964Z" stroke="#00F9FB" stroke-width="1.06667" stroke-miterlimit="10" stroke-linecap="round"/>
<path d="M313.87 153.451C313.41 153.911 313.411 154.656 313.87 155.116C314.33 155.575 315.076 155.576 315.535 155.116L333.768 136.884C343.079 127.572 358.184 127.578 367.505 136.899C376.826 146.22 376.832 161.325 367.521 170.636L340.441 197.716C336.016 202.141 328.836 202.139 324.405 197.708C319.975 193.277 319.972 186.098 324.398 181.672L351.477 154.593C351.937 154.133 351.936 153.387 351.477 152.928C351.017 152.468 350.271 152.467 349.811 152.927L331.579 171.16C322.267 180.471 307.162 180.465 297.842 171.144C288.521 161.824 288.515 146.719 297.826 137.407L324.905 110.328C329.331 105.902 336.511 105.905 340.941 110.335C345.372 114.766 345.375 121.946 340.949 126.371L313.87 153.451Z" stroke="#00F9FB" stroke-width="1.06667" stroke-miterlimit="10" stroke-linecap="round"/>
</g>
<g clip-path="url(#clip33_2_1276)">
<path d="M367.422 99.3754C366.962 99.8354 366.966 100.58 367.424 101.038L394.503 128.118C398.931 132.545 398.943 139.707 394.536 144.114C390.128 148.521 382.967 148.509 378.539 144.082L351.46 117.003C342.147 107.69 342.12 92.621 351.394 83.3469C360.668 74.0729 375.737 74.0997 385.05 83.4129L403.282 101.645C403.741 102.104 404.485 102.107 404.945 101.647C405.405 101.187 405.402 100.442 404.944 99.9841L377.864 72.9049C373.437 68.4774 373.425 61.3156 377.832 56.9085C382.239 52.5015 389.401 52.5131 393.829 56.9406L420.908 84.0198C430.221 93.333 430.248 108.402 420.974 117.676C411.7 126.95 396.631 126.923 387.318 117.61L369.086 99.3772C368.627 98.919 367.882 98.9155 367.422 99.3754Z" stroke="#00F9FB" stroke-width="1.06667" stroke-miterlimit="10" stroke-linecap="round"/>
<path d="M420.458 46.8619C419.999 47.3218 419.999 48.0677 420.459 48.5271C420.918 48.9866 421.664 48.9874 422.124 48.5275L440.357 30.295C449.668 20.9835 464.773 20.9897 474.094 30.3104C483.415 39.6311 483.421 54.7361 474.109 64.0476L447.03 91.1268C442.604 95.5527 435.425 95.5499 430.994 91.1193C426.563 86.6887 426.561 79.5092 430.987 75.0833L458.066 48.0041C458.526 47.5443 458.525 46.7984 458.065 46.3389C457.606 45.8794 456.86 45.8786 456.4 46.3385L438.168 64.571C428.856 73.8826 413.751 73.8763 404.43 64.5556C395.11 55.235 395.103 40.1299 404.415 30.8184L431.494 3.7392C435.92 -0.686627 443.1 -0.68391 447.53 3.7467C451.961 8.1773 451.964 15.3569 447.538 19.7827L420.458 46.8619Z" stroke="#00F9FB" stroke-width="1.06667" stroke-miterlimit="10" stroke-linecap="round"/>
</g>
<g clip-path="url(#clip34_2_1276)">
<path d="M474.01 -7.21272C473.55 -6.75276 473.554 -6.00783 474.012 -5.54963L501.091 21.5296C505.519 25.9571 505.53 33.1189 501.123 37.526C496.716 41.933 489.554 41.9214 485.127 37.4938L458.048 10.4146C448.734 1.10141 448.708 -13.9672 457.982 -23.2412C467.256 -32.5153 482.324 -32.4885 491.638 -23.1752L509.87 -4.94271C510.328 -4.48451 511.073 -4.481 511.533 -4.94096C511.993 -5.40092 511.99 -6.14584 511.531 -6.60404L484.452 -33.6832C480.025 -38.1108 480.013 -45.2726 484.42 -49.6796C488.827 -54.0867 495.989 -54.075 500.416 -49.6475L527.496 -22.5683C536.809 -13.2551 536.836 1.81349 527.562 11.0875C518.288 20.3616 503.219 20.3348 493.906 11.0216L475.673 -7.21097C475.215 -7.66917 474.47 -7.67268 474.01 -7.21272Z" stroke="#00F9FB" stroke-width="1.06667" stroke-miterlimit="10" stroke-linecap="round"/>
</g>
<g clip-path="url(#clip35_2_1276)">
<path d="M154.573 420.508C154.113 420.968 154.114 421.714 154.573 422.173C155.033 422.632 155.778 422.633 156.238 422.173L174.471 403.941C183.782 394.629 198.887 394.636 208.208 403.956C217.529 413.277 217.535 428.382 208.224 437.694L181.144 464.773C176.719 469.199 169.539 469.196 165.108 464.765C160.678 460.335 160.675 453.155 165.101 448.729L192.18 421.65C192.64 421.19 192.639 420.444 192.18 419.985C191.72 419.525 190.974 419.525 190.514 419.984L172.282 438.217C162.97 447.528 147.865 447.522 138.545 438.202C129.224 428.881 129.218 413.776 138.529 404.464L165.608 377.385C170.034 372.959 177.214 372.962 181.644 377.393C186.075 381.823 186.078 389.003 181.652 393.429L154.573 420.508Z" stroke="#00F9FB" stroke-width="1.06667" stroke-miterlimit="10" stroke-linecap="round"/>
</g>
<g clip-path="url(#clip36_2_1276)">
<path d="M208.125 366.433C207.665 366.893 207.669 367.638 208.127 368.096L235.206 395.175C239.634 399.603 239.646 406.764 235.238 411.171C230.831 415.579 223.67 415.567 219.242 411.139L192.163 384.06C182.85 374.747 182.823 359.678 192.097 350.404C201.371 341.13 216.44 341.157 225.753 350.47L243.985 368.703C244.443 369.161 245.188 369.165 245.648 368.705C246.108 368.245 246.105 367.5 245.647 367.041L218.567 339.962C214.14 335.535 214.128 328.373 218.535 323.966C222.942 319.559 230.104 319.57 234.532 323.998L261.611 351.077C270.924 360.39 270.951 375.459 261.677 384.733C252.403 394.007 237.334 393.98 228.021 384.667L209.788 366.435C209.33 365.976 208.585 365.973 208.125 366.433Z" stroke="#00F9FB" stroke-width="1.06667" stroke-miterlimit="10" stroke-linecap="round"/>
<path d="M261.161 313.919C260.702 314.379 260.702 315.125 261.162 315.585C261.621 316.044 262.367 316.045 262.827 315.585L281.06 297.352C290.371 288.041 305.476 288.047 314.797 297.368C324.118 306.688 324.124 321.793 314.812 331.105L287.733 358.184C283.307 362.61 276.128 362.607 271.697 358.177C267.266 353.746 267.264 346.567 271.69 342.141L298.769 315.062C299.229 314.602 299.228 313.856 298.768 313.396C298.309 312.937 297.563 312.936 297.103 313.396L278.871 331.628C269.559 340.94 254.454 340.934 245.133 331.613C235.813 322.292 235.806 307.187 245.118 297.876L272.197 270.797C276.623 266.371 283.803 266.373 288.233 270.804C292.664 275.235 292.666 282.414 288.241 286.84L261.161 313.919Z" stroke="#00F9FB" stroke-width="1.06667" stroke-miterlimit="10" stroke-linecap="round"/>
</g>
<g clip-path="url(#clip37_2_1276)">
<path d="M314.714 259.844C314.254 260.304 314.258 261.049 314.716 261.507L341.795 288.586C346.223 293.014 346.234 300.175 341.827 304.582C337.42 308.99 330.258 308.978 325.831 304.55L298.752 277.471C289.438 268.158 289.412 253.089 298.686 243.815C307.96 234.541 323.028 234.568 332.341 243.881L350.574 262.114C351.032 262.572 351.777 262.576 352.237 262.116C352.697 261.656 352.694 260.911 352.235 260.452L325.156 233.373C320.729 228.946 320.717 221.784 325.124 217.377C329.531 212.97 336.693 212.981 341.12 217.409L368.2 244.488C377.513 253.801 377.54 268.87 368.266 278.144C358.992 287.418 343.923 287.391 334.61 278.078L316.377 259.846C315.919 259.387 315.174 259.384 314.714 259.844Z" stroke="#00F9FB" stroke-width="1.06667" stroke-miterlimit="10" stroke-linecap="round"/>
<path d="M367.75 207.33C367.29 207.79 367.291 208.536 367.751 208.996C368.21 209.455 368.956 209.456 369.416 208.996L387.648 190.763C396.96 181.452 412.065 181.458 421.386 190.779C430.706 200.099 430.713 215.204 421.401 224.516L394.322 251.595C389.896 256.021 382.716 256.018 378.286 251.588C373.855 247.157 373.852 239.978 378.278 235.552L405.357 208.473C405.817 208.013 405.817 207.267 405.357 206.807C404.898 206.348 404.152 206.347 403.692 206.807L385.459 225.039C376.148 234.351 361.043 234.345 351.722 225.024C342.401 215.703 342.395 200.598 351.707 191.287L378.786 164.208C383.212 159.782 390.391 159.784 394.822 164.215C399.252 168.646 399.255 175.825 394.829 180.251L367.75 207.33Z" stroke="#00F9FB" stroke-width="1.06667" stroke-miterlimit="10" stroke-linecap="round"/>
</g>
<g clip-path="url(#clip38_2_1276)">
<path d="M421.302 153.255C420.842 153.715 420.845 154.46 421.304 154.919L448.383 181.998C452.81 186.425 452.822 193.587 448.415 197.994C444.008 202.401 436.846 202.389 432.419 197.962L405.339 170.883C396.026 161.57 395.999 146.501 405.273 137.227C414.547 127.953 429.616 127.98 438.929 137.293L457.162 155.525C457.62 155.984 458.365 155.987 458.825 155.527C459.285 155.067 459.281 154.322 458.823 153.864L431.744 126.785C427.316 122.357 427.305 115.196 431.712 110.789C436.119 106.381 443.281 106.393 447.708 110.821L474.787 137.9C484.101 147.213 484.127 162.282 474.853 171.556C465.579 180.83 450.511 180.803 441.197 171.49L422.965 153.257C422.507 152.799 421.762 152.795 421.302 153.255Z" stroke="#00F9FB" stroke-width="1.06667" stroke-miterlimit="10" stroke-linecap="round"/>
<path d="M474.338 100.742C473.878 101.202 473.879 101.948 474.338 102.407C474.798 102.867 475.544 102.867 476.004 102.408L494.236 84.175C503.548 74.8635 518.653 74.8697 527.973 84.1904C537.294 93.5111 537.3 108.616 527.989 117.928L500.91 145.007C496.484 149.433 489.304 149.43 484.874 144.999C480.443 140.569 480.44 133.389 484.866 128.963L511.945 101.884C512.405 101.424 512.404 100.678 511.945 100.219C511.485 99.7594 510.739 99.7586 510.28 100.218L492.047 118.451C482.736 127.763 467.63 127.756 458.31 118.436C448.989 109.115 448.983 94.0099 458.294 84.6984L485.374 57.6192C489.799 53.1934 496.979 53.1961 501.41 57.6267C505.84 62.0573 505.843 69.2369 501.417 73.6627L474.338 100.742Z" stroke="#00F9FB" stroke-width="1.06667" stroke-miterlimit="10" stroke-linecap="round"/>
</g>
<g clip-path="url(#clip39_2_1276)">
<path d="M527.891 46.6672C527.431 47.1271 527.434 47.8721 527.892 48.3302L554.972 75.4094C559.399 79.837 559.411 86.9988 555.004 91.4058C550.597 95.8129 543.435 95.8012 539.007 91.3737L511.928 64.2945C502.615 54.9813 502.588 39.9127 511.862 30.6387C521.136 21.3646 536.205 21.3914 545.518 30.7046L563.75 48.9372C564.209 49.3954 564.954 49.3989 565.414 48.9389C565.873 48.479 565.87 47.734 565.412 47.2758L538.333 20.1966C533.905 15.7691 533.893 8.60731 538.3 4.20026C542.708 -0.206793 549.869 -0.195137 554.297 4.23238L581.376 31.3116C590.689 40.6248 590.716 55.6934 581.442 64.9674C572.168 74.2415 557.099 74.2147 547.786 64.9014L529.554 46.6689C529.095 46.2107 528.351 46.2072 527.891 46.6672Z" stroke="#00F9FB" stroke-width="1.06667" stroke-miterlimit="10" stroke-linecap="round"/>
<path d="M580.927 -5.84623C580.467 -5.38635 580.468 -4.64046 580.927 -4.181C581.386 -3.72153 582.132 -3.72071 582.592 -4.18059L600.825 -22.4131C610.136 -31.7247 625.241 -31.7184 634.562 -22.3977C643.883 -13.0771 643.889 2.02796 634.577 11.3395L607.498 38.4187C603.072 42.8445 595.893 42.8418 591.462 38.4112C587.032 33.9806 587.029 26.801 591.455 22.3752L618.534 -4.704C618.994 -5.16387 618.993 -5.90975 618.534 -6.36922C618.074 -6.8287 617.328 -6.8295 616.868 -6.36964L598.636 11.8629C589.324 21.1744 574.219 21.1682 564.898 11.8475C555.578 2.52683 555.572 -12.5782 564.883 -21.8897L591.962 -48.9689C596.388 -53.3948 603.568 -53.392 607.998 -48.9614C612.429 -44.5308 612.432 -37.3513 608.006 -32.9254L580.927 -5.84623Z" stroke="#00F9FB" stroke-width="1.06667" stroke-miterlimit="10" stroke-linecap="round"/>
</g>
</g>
</g>
<defs>
<clipPath id="clip0_2_1276">
<rect width="721.957" height="418.133" fill="white" transform="translate(0.933594 0.43335)"/>
</clipPath>
<clipPath id="clip1_2_1276">
<rect width="149.083" height="74.5413" fill="white" transform="translate(228.11 420.761) rotate(-45)"/>
</clipPath>
<clipPath id="clip2_2_1276">
<rect width="149.083" height="74.5413" fill="white" transform="translate(334.699 314.173) rotate(-45)"/>
</clipPath>
<clipPath id="clip3_2_1276">
<rect width="149.083" height="74.5413" fill="white" transform="translate(441.287 207.584) rotate(-45)"/>
</clipPath>
<clipPath id="clip4_2_1276">
<rect width="149.083" height="74.5413" fill="white" transform="translate(547.876 100.996) rotate(-45)"/>
</clipPath>
<clipPath id="clip5_2_1276">
<rect width="149.083" height="74.5413" fill="white" transform="translate(281.99 474.641) rotate(-45)"/>
</clipPath>
<clipPath id="clip6_2_1276">
<rect width="149.083" height="74.5413" fill="white" transform="translate(388.578 368.053) rotate(-45)"/>
</clipPath>
<clipPath id="clip7_2_1276">
<rect width="149.083" height="74.5413" fill="white" transform="translate(495.167 261.464) rotate(-45)"/>
</clipPath>
<clipPath id="clip8_2_1276">
<rect width="149.083" height="74.5413" fill="white" transform="translate(601.755 154.876) rotate(-45)"/>
</clipPath>
<clipPath id="clip9_2_1276">
<rect width="149.083" height="74.5413" fill="white" transform="translate(442.458 421.932) rotate(-45)"/>
</clipPath>
<clipPath id="clip10_2_1276">
<rect width="149.083" height="74.5413" fill="white" transform="translate(549.047 315.344) rotate(-45)"/>
</clipPath>
<clipPath id="clip11_2_1276">
<rect width="149.083" height="74.5413" fill="white" transform="translate(655.636 208.756) rotate(-45)"/>
</clipPath>
<clipPath id="clip12_2_1276">
<rect width="149.083" height="74.5413" fill="white" transform="translate(496.338 475.812) rotate(-45)"/>
</clipPath>
<clipPath id="clip13_2_1276">
<rect width="149.083" height="74.5413" fill="white" transform="translate(602.927 369.224) rotate(-45)"/>
</clipPath>
<clipPath id="clip14_2_1276">
<rect width="149.083" height="74.5413" fill="white" transform="translate(709.515 262.636) rotate(-45)"/>
</clipPath>
<clipPath id="clip15_2_1276">
<rect width="149.083" height="74.5413" fill="white" transform="translate(656.807 423.104) rotate(-45)"/>
</clipPath>
<clipPath id="clip16_2_1276">
<rect width="149.083" height="74.5413" fill="white" transform="translate(710.686 476.984) rotate(-45)"/>
</clipPath>
<clipPath id="clip17_2_1276">
<rect width="149.083" height="74.5413" fill="white" transform="translate(-94.8524 97.7992) rotate(-45)"/>
</clipPath>
<clipPath id="clip18_2_1276">
<rect width="149.083" height="74.5413" fill="white" transform="translate(11.7363 -8.78906) rotate(-45)"/>
</clipPath>
<clipPath id="clip19_2_1276">
<rect width="149.083" height="74.5413" fill="white" transform="translate(-147.561 258.268) rotate(-45)"/>
</clipPath>
<clipPath id="clip20_2_1276">
<rect width="149.083" height="74.5413" fill="white" transform="translate(-40.972 151.679) rotate(-45)"/>
</clipPath>
<clipPath id="clip21_2_1276">
<rect width="149.083" height="74.5413" fill="white" transform="translate(65.6158 45.0909) rotate(-45)"/>
</clipPath>
<clipPath id="clip22_2_1276">
<rect width="149.083" height="74.5413" fill="white" transform="translate(-93.6812 312.148) rotate(-45)"/>
</clipPath>
<clipPath id="clip23_2_1276">
<rect width="149.083" height="74.5413" fill="white" transform="translate(12.9075 205.559) rotate(-45)"/>
</clipPath>
<clipPath id="clip24_2_1276">
<rect width="149.083" height="74.5413" fill="white" transform="translate(119.496 98.97) rotate(-45)"/>
</clipPath>
<clipPath id="clip25_2_1276">
<rect width="149.083" height="74.5413" fill="white" transform="translate(226.085 -7.61804) rotate(-45)"/>
</clipPath>
<clipPath id="clip26_2_1276">
<rect width="149.083" height="74.5413" fill="white" transform="translate(-39.8008 366.027) rotate(-45)"/>
</clipPath>
<clipPath id="clip27_2_1276">
<rect width="149.083" height="74.5413" fill="white" transform="translate(66.7879 259.439) rotate(-45)"/>
</clipPath>
<clipPath id="clip28_2_1276">
<rect width="149.083" height="74.5413" fill="white" transform="translate(173.376 152.85) rotate(-45)"/>
</clipPath>
<clipPath id="clip29_2_1276">
<rect width="149.083" height="74.5413" fill="white" transform="translate(279.964 46.2616) rotate(-45)"/>
</clipPath>
<clipPath id="clip30_2_1276">
<rect width="149.083" height="74.5413" fill="white" transform="translate(14.0786 419.908) rotate(-45)"/>
</clipPath>
<clipPath id="clip31_2_1276">
<rect width="149.083" height="74.5413" fill="white" transform="translate(120.667 313.319) rotate(-45)"/>
</clipPath>
<clipPath id="clip32_2_1276">
<rect width="149.083" height="74.5413" fill="white" transform="translate(227.256 206.731) rotate(-45)"/>
</clipPath>
<clipPath id="clip33_2_1276">
<rect width="149.083" height="74.5413" fill="white" transform="translate(333.845 100.142) rotate(-45)"/>
</clipPath>
<clipPath id="clip34_2_1276">
<rect width="149.083" height="74.5413" fill="white" transform="translate(440.432 -6.44629) rotate(-45)"/>
</clipPath>
<clipPath id="clip35_2_1276">
<rect width="149.083" height="74.5413" fill="white" transform="translate(67.959 473.788) rotate(-45)"/>
</clipPath>
<clipPath id="clip36_2_1276">
<rect width="149.083" height="74.5413" fill="white" transform="translate(174.548 367.199) rotate(-45)"/>
</clipPath>
<clipPath id="clip37_2_1276">
<rect width="149.083" height="74.5413" fill="white" transform="translate(281.136 260.61) rotate(-45)"/>
</clipPath>
<clipPath id="clip38_2_1276">
<rect width="149.083" height="74.5413" fill="white" transform="translate(387.724 154.022) rotate(-45)"/>
</clipPath>
<clipPath id="clip39_2_1276">
<rect width="149.083" height="74.5413" fill="white" transform="translate(494.313 47.4336) rotate(-45)"/>
</clipPath>
</defs>
</svg>
