<svg width="241" height="167" viewBox="0 0 241 167" fill="none" xmlns="http://www.w3.org/2000/svg">
<g opacity="0.3">
<path opacity="0.81" d="M229.301 0.178756L229.301 8.2052L237.327 8.2052L237.327 0.178755L229.301 0.178756Z" fill="#6E609F"/>
<path opacity="0.73" d="M229.37 11.7222L229.37 19.6027L237.251 19.6027L237.251 11.7222L229.37 11.7222Z" fill="#6E609F"/>
<path opacity="0.5" d="M229.626 23.4444L229.626 30.8214L237.003 30.8214L237.003 23.4444L229.626 23.4444Z" fill="#6E609F"/>
<path opacity="0.92" d="M229.786 35.079L229.786 42.1313L236.838 42.1313L236.838 35.079L229.786 35.079Z" fill="#6E609F"/>
<path opacity="0.93" d="M230.11 46.8744L230.11 53.281L236.517 53.281L236.517 46.8744L230.11 46.8744Z" fill="#6E609F"/>
<path opacity="0.27" d="M230.289 58.5236L230.289 64.569L236.335 64.569L236.335 58.5236L230.289 58.5236Z" fill="#6E609F"/>
<path opacity="0.9" d="M230.793 81.9717L230.793 87.0101L235.831 87.0101L235.831 81.9717L230.793 81.9717Z" fill="#6E609F"/>
<path opacity="0.18" d="M231.333 105.453L231.333 109.411L235.292 109.411L235.292 105.453L231.333 105.453Z" fill="#6E609F"/>
<path d="M231.745 128.81L231.745 131.94L234.876 131.94L234.876 128.81L231.745 128.81Z" fill="#6E609F"/>
<path opacity="0.74" d="M217.757 0.105688L217.757 8.27441L225.926 8.27441L225.926 0.105688L217.757 0.105688Z" fill="#6E609F"/>
<path opacity="0.93" d="M217.845 11.6675L217.845 19.6575L225.835 19.6575L225.835 11.6675L217.845 11.6675Z" fill="#6E609F"/>
<path opacity="0.78" d="M218.064 23.3568L218.064 30.9126L225.62 30.9126L225.62 23.3568L218.064 23.3568Z" fill="#6E609F"/>
<path opacity="0.23" d="M218.206 34.9696L218.206 42.2408L225.477 42.2408L225.477 34.9696L218.206 34.9696Z" fill="#6E609F"/>
<path opacity="0.41" d="M218.709 58.4178L218.709 64.6785L224.97 64.6785L224.97 58.4178L218.709 58.4178Z" fill="#6E609F"/>
<path opacity="0.1" d="M219.071 70.2494L219.071 75.7913L224.613 75.7913L224.613 70.2494L219.071 70.2494Z" fill="#6E609F"/>
<path opacity="0.12" d="M219.519 93.6429L219.519 98.2837L224.16 98.2837L224.16 93.6429L219.519 93.6429Z" fill="#6E609F"/>
<path opacity="0.38" d="M219.899 116.963L219.899 120.849L223.785 120.849L223.785 116.963L219.899 116.963Z" fill="#6E609F"/>
<path opacity="0.34" d="M220.329 140.335L220.329 143.359L223.354 143.359L223.354 140.335L220.329 140.335Z" fill="#6E609F"/>
<path opacity="0.54" d="M206.195 0.0180969L206.195 8.3656L214.547 8.3656L214.547 0.0180966L206.195 0.0180969Z" fill="#6E609F"/>
<path opacity="0.79" d="M206.269 11.5615L206.269 19.7667L214.474 19.7667L214.474 11.5615L206.269 11.5615Z" fill="#6E609F"/>
<path opacity="0.53" d="M206.484 23.2474L206.484 31.0221L214.259 31.0221L214.259 23.2474L206.484 23.2474Z" fill="#6E609F"/>
<path opacity="0.42" d="M206.589 34.8274L206.589 42.3832L214.145 42.3832L214.145 34.8274L206.589 34.8274Z" fill="#6E609F"/>
<path opacity="0.99" d="M206.914 46.6226L206.914 53.5326L213.824 53.5326L213.824 46.6226L206.914 46.6226Z" fill="#6E609F"/>
<path opacity="0.61" d="M207.454 70.1036L207.454 75.9337L213.284 75.9337L213.284 70.1036L207.454 70.1036Z" fill="#6E609F"/>
<path opacity="0.82" d="M207.921 93.5152L207.921 98.4077L212.817 98.4077L212.817 93.5152L207.921 93.5152Z" fill="#6E609F"/>
<path opacity="0.44" d="M208.283 116.817L208.283 120.991L212.457 120.991L212.457 116.817L208.283 116.817Z" fill="#6E609F"/>
<path opacity="0.12" d="M209.019 151.97L209.019 154.669L211.719 154.669L211.719 151.97L209.019 151.97Z" fill="#6E609F"/>
<path opacity="0.44" d="M194.707 -6.67572e-05L194.707 8.38391L203.091 8.38391L203.091 -6.71237e-05L194.707 -6.67572e-05Z" fill="#6E609F"/>
<path opacity="0.89" d="M194.762 11.5214L194.762 19.7996L203.04 19.7996L203.04 11.5214L194.762 11.5214Z" fill="#6E609F"/>
<path opacity="0.89" d="M194.977 23.2109L194.977 31.0549L202.821 31.0549L202.821 23.2109L194.977 23.2109Z" fill="#6E609F"/>
<path opacity="0.58" d="M195.101 34.8092L195.101 42.4015L202.693 42.4015L202.693 34.8092L195.101 34.8092Z" fill="#6E609F"/>
<path opacity="0.39" d="M195.389 46.5678L195.389 53.5836L202.405 53.5836L202.405 46.5678L195.389 46.5678Z" fill="#6E609F"/>
<path opacity="0.6" d="M195.571 58.2171L195.571 64.8754L202.23 64.8754L202.23 58.2171L195.571 58.2171Z" fill="#6E609F"/>
<path opacity="0.31" d="M195.929 70.0488L195.929 75.9884L201.868 75.9884L201.868 70.0488L195.929 70.0488Z" fill="#6E609F"/>
<path opacity="0.12" d="M196.108 81.7017L196.108 87.28L201.686 87.28L201.686 81.7017L196.108 81.7017Z" fill="#6E609F"/>
<path opacity="0.38" d="M196.666 105.201L196.666 109.663L201.128 109.663L201.128 105.201L196.666 105.201Z" fill="#6E609F"/>
<path opacity="0.61" d="M197.009 128.485L197.009 132.265L200.788 132.265L200.788 128.485L197.009 128.485Z" fill="#6E609F"/>
<path opacity="0.72" d="M183.236 -6.67572e-05L183.236 8.38391L191.62 8.38391L191.62 -6.71237e-05L183.236 -6.67572e-05Z" fill="#6E609F"/>
<path opacity="0.68" d="M183.287 11.5214L183.287 19.7996L191.565 19.7996L191.565 11.5214L183.287 11.5214Z" fill="#6E609F"/>
<path opacity="0.66" d="M183.47 23.1744L183.47 31.0914L191.387 31.0914L191.387 23.1744L183.47 23.1744Z" fill="#6E609F"/>
<path opacity="0.5" d="M183.594 34.7726L183.594 42.4379L191.259 42.4379L191.259 34.7726L183.594 34.7726Z" fill="#6E609F"/>
<path opacity="0.12" d="M183.846 46.4948L183.846 53.6566L191.007 53.6566L191.007 46.4948L183.846 46.4948Z" fill="#6E609F"/>
<path opacity="0.17" d="M184.385 69.9794L184.385 76.0613L190.467 76.0613L190.467 69.9794L184.385 69.9794Z" fill="#6E609F"/>
<path opacity="0.27" d="M184.907 93.4423L184.907 98.4807L189.946 98.4807L189.946 93.4423L184.907 93.4423Z" fill="#6E609F"/>
<path opacity="0.88" d="M185.25 116.726L185.25 121.083L189.606 121.083L189.606 116.726L185.25 116.726Z" fill="#6E609F"/>
<path opacity="0.75" d="M185.594 140.01L185.594 143.68L189.264 143.68L189.264 140.01L185.594 140.01Z" fill="#6E609F"/>
<path opacity="0.69" d="M186.078 163.44L186.078 166.14L188.778 166.14L188.778 163.44L186.078 163.44Z" fill="#6E609F"/>
<path opacity="0.92" d="M171.762 -6.67572e-05L171.762 8.38391L180.146 8.38391L180.146 -6.71237e-05L171.762 -6.67572e-05Z" fill="#6E609F"/>
<path opacity="0.13" d="M171.817 11.5214L171.817 19.7996L180.095 19.7996L180.095 11.5214L171.817 11.5214Z" fill="#6E609F"/>
<path opacity="0.26" d="M171.996 23.1744L171.996 31.0914L179.913 31.0914L179.913 23.1744L171.996 23.1744Z" fill="#6E609F"/>
<path opacity="0.44" d="M172.124 34.7726L172.124 42.4379L179.789 42.4379L179.789 34.7726L172.124 34.7726Z" fill="#6E609F"/>
<path opacity="0.63" d="M172.375 46.495L172.375 53.6567L179.537 53.6567L179.537 46.495L172.375 46.495Z" fill="#6E609F"/>
<path opacity="0.22" d="M172.536 58.1295L172.536 64.9666L179.373 64.9666L179.373 58.1295L172.536 58.1295Z" fill="#6E609F"/>
<path opacity="0.81" d="M172.879 69.9394L172.879 76.0942L179.033 76.0942L179.033 69.9394L172.879 69.9394Z" fill="#6E609F"/>
<path opacity="0.4" d="M173.076 81.6105L173.076 87.3677L178.833 87.3677L178.833 81.6105L173.076 81.6105Z" fill="#6E609F"/>
<path opacity="0.75" d="M173.671 105.146L173.671 109.718L178.242 109.718L178.242 105.146L173.671 105.146Z" fill="#6E609F"/>
<path opacity="0.6" d="M173.958 128.379L173.958 132.374L177.953 132.374L177.953 128.379L173.958 128.379Z" fill="#6E609F"/>
<path opacity="0.56" d="M160.31 0.0180969L160.31 8.3656L168.658 8.3656L168.658 0.0180966L160.31 0.0180969Z" fill="#6E609F"/>
<path opacity="0.42" d="M160.364 11.5397L160.364 19.7814L168.606 19.7814L168.606 11.5397L160.364 11.5397Z" fill="#6E609F"/>
<path opacity="0.93" d="M160.544 23.1927L160.544 31.0732L168.424 31.0732L168.424 23.1927L160.544 23.1927Z" fill="#6E609F"/>
<path opacity="0.85" d="M160.653 34.7726L160.653 42.4379L168.318 42.4379L168.318 34.7726L160.653 34.7726Z" fill="#6E609F"/>
<path opacity="0.88" d="M160.905 46.495L160.905 53.6567L168.066 53.6567L168.066 46.495L160.905 46.495Z" fill="#6E609F"/>
<path opacity="0.18" d="M161.39 69.9212L161.39 76.1125L167.581 76.1125L167.581 69.9212L161.39 69.9212Z" fill="#6E609F"/>
<path opacity="0.29" d="M161.911 93.3875L161.911 98.5354L167.059 98.5354L167.059 93.3875L161.911 93.3875Z" fill="#6E609F"/>
<path opacity="0.16" d="M162.272 116.693L162.272 121.119L166.698 121.119L166.698 116.693L162.272 116.693Z" fill="#6E609F"/>
<path opacity="0.76" d="M162.561 139.923L162.561 143.772L166.41 143.772L166.41 139.923L162.561 139.923Z" fill="#6E609F"/>
<path opacity="0.58" d="M163.01 163.313L163.01 166.264L165.961 166.264L165.961 163.313L163.01 163.313Z" fill="#6E609F"/>
<path opacity="0.78" d="M148.839 0.0180969L148.839 8.3656L157.187 8.3656L157.187 0.0180966L148.839 0.0180969Z" fill="#6E609F"/>
<path opacity="0.77" d="M148.912 11.5615L148.912 19.7667L157.118 19.7667L157.118 11.5615L148.912 11.5615Z" fill="#6E609F"/>
<path opacity="0.14" d="M149.091 23.2109L149.091 31.0549L156.935 31.0549L156.935 23.2109L149.091 23.2109Z" fill="#6E609F"/>
<path opacity="0.39" d="M149.197 34.7908L149.197 42.4196L156.826 42.4196L156.826 34.7908L149.197 34.7908Z" fill="#6E609F"/>
<path opacity="0.5" d="M149.434 46.495L149.434 53.6567L156.596 53.6567L156.596 46.495L149.434 46.495Z" fill="#6E609F"/>
<path opacity="0.74" d="M149.576 58.1114L149.576 64.985L156.449 64.985L156.449 58.1114L149.576 58.1114Z" fill="#6E609F"/>
<path opacity="0.77" d="M149.919 69.9212L149.919 76.1125L156.11 76.1125L156.11 69.9212L149.919 69.9212Z" fill="#6E609F"/>
<path opacity="0.48" d="M150.098 81.5741L150.098 87.4042L155.928 87.4042L155.928 81.5741L150.098 81.5741Z" fill="#6E609F"/>
<path opacity="0.9" d="M150.693 105.113L150.693 109.754L155.334 109.754L155.334 105.113L150.693 105.113Z" fill="#6E609F"/>
<path opacity="0.36" d="M150.981 128.339L150.981 132.407L155.049 132.407L155.049 128.339L150.981 128.339Z" fill="#6E609F"/>
<path opacity="0.16" d="M137.405 0.0509167L137.405 8.3291L145.683 8.3291L145.683 0.0509163L137.405 0.0509167Z" fill="#6E609F"/>
<path opacity="0.94" d="M137.474 11.5981L137.474 19.7303L145.607 19.7303L145.607 11.5981L137.474 11.5981Z" fill="#6E609F"/>
<path opacity="0.26" d="M137.657 23.2474L137.657 31.0221L145.432 31.0221L145.432 23.2474L137.657 23.2474Z" fill="#6E609F"/>
<path opacity="0.2" d="M137.763 34.8273L137.763 42.3831L145.319 42.3831L145.319 34.8273L137.763 34.8273Z" fill="#6E609F"/>
<path opacity="0.54" d="M138.015 46.5496L138.015 53.6019L145.067 53.6019L145.067 46.5496L138.015 46.5496Z" fill="#6E609F"/>
<path opacity="0.56" d="M138.463 69.9394L138.463 76.0942L144.618 76.0942L144.618 69.9394L138.463 69.9394Z" fill="#6E609F"/>
<path opacity="0.98" d="M138.971 93.3875L138.971 98.5354L144.119 98.5354L144.119 93.3875L138.971 93.3875Z" fill="#6E609F"/>
<path opacity="0.96" d="M139.309 116.675L139.309 121.137L143.771 121.137L143.771 116.675L139.309 116.675Z" fill="#6E609F"/>
<path opacity="0.56" d="M139.579 139.886L139.579 143.808L143.501 143.808L143.501 139.886L139.579 139.886Z" fill="#6E609F"/>
<path opacity="0.93" d="M140.014 163.262L140.014 166.319L143.071 166.319L143.071 163.262L140.014 163.262Z" fill="#6E609F"/>
<path opacity="0.41" d="M125.949 0.0692148L125.949 8.31091L134.191 8.31091L134.191 0.0692145L125.949 0.0692148Z" fill="#6E609F"/>
<path opacity="0.87" d="M126.022 11.6164L126.022 19.7122L134.118 19.7122L134.118 11.6164L126.022 11.6164Z" fill="#6E609F"/>
<path opacity="0.52" d="M126.219 23.2837L126.219 30.9855L133.921 30.9855L133.921 23.2837L126.219 23.2837Z" fill="#6E609F"/>
<path opacity="0.59" d="M126.31 34.842L126.31 42.365L133.833 42.365L133.833 34.842L126.31 34.842Z" fill="#6E609F"/>
<path opacity="0.84" d="M126.562 46.5678L126.562 53.5836L133.582 53.5836L133.582 46.5678L126.562 46.5678Z" fill="#6E609F"/>
<path opacity="0.93" d="M126.686 58.1661L126.686 64.9302L133.451 64.9302L133.451 58.1661L126.686 58.1661Z" fill="#6E609F"/>
<path opacity="0.67" d="M126.993 69.9394L126.993 76.0942L133.147 76.0942L133.147 69.9394L126.993 69.9394Z" fill="#6E609F"/>
<path opacity="0.21" d="M127.176 81.5924L127.176 87.386L132.969 87.386L132.969 81.5924L127.176 81.5924Z" fill="#6E609F"/>
<path opacity="0.23" d="M127.748 105.114L127.748 109.754L132.389 109.754L132.389 105.114L127.748 105.114Z" fill="#6E609F"/>
<path opacity="0.25" d="M128.018 128.325L128.018 132.425L132.123 132.425L132.123 128.325L128.018 128.325Z" fill="#6E609F"/>
<path opacity="0.86" d="M128.379 151.627L128.379 155.009L131.761 155.009L131.761 151.627L128.379 151.627Z" fill="#6E609F"/>
<path opacity="0.73" d="M114.515 0.105688L114.515 8.27441L122.684 8.27441L122.684 0.105688L114.515 0.105688Z" fill="#6E609F"/>
<path opacity="0.34" d="M114.606 11.6674L114.606 19.6573L122.596 19.6573L122.596 11.6674L114.606 11.6674Z" fill="#6E609F"/>
<path opacity="0.73" d="M114.804 23.3385L114.804 30.9308L122.396 30.9308L122.396 23.3385L114.804 23.3385Z" fill="#6E609F"/>
<path opacity="0.79" d="M114.891 34.9003L114.891 42.3138L122.305 42.3138L122.305 34.9003L114.891 34.9003Z" fill="#6E609F"/>
<path d="M115.143 46.6226L115.143 53.5326L122.053 53.5326L122.053 46.6226L115.143 46.6226Z" fill="#6E609F"/>
<path opacity="0.81" d="M115.577 69.9976L115.577 76.043L121.622 76.043L121.622 69.9976L115.577 69.9976Z" fill="#6E609F"/>
<path opacity="0.68" d="M116.062 93.424L116.062 98.4989L121.137 98.4989L121.137 93.424L116.062 93.424Z" fill="#6E609F"/>
<path opacity="0.28" d="M116.387 116.693L116.387 121.119L120.813 121.119L120.813 116.693L116.387 116.693Z" fill="#6E609F"/>
<path opacity="0.18" d="M116.657 139.905L116.657 143.79L120.542 143.79L120.542 139.905L116.657 139.905Z" fill="#6E609F"/>
<path opacity="0.77" d="M117.106 163.294L117.106 166.282L120.094 166.282L120.094 163.294L117.106 163.294Z" fill="#6E609F"/>
<path opacity="0.11" d="M103.114 0.178756L103.114 8.2052L111.14 8.2052L111.14 0.178755L103.114 0.178756Z" fill="#6E609F"/>
<path opacity="0.46" d="M103.205 11.7403L103.205 19.5844L111.049 19.5844L111.049 11.7403L103.205 11.7403Z" fill="#6E609F"/>
<path opacity="0.76" d="M103.384 23.3897L103.384 30.8762L110.871 30.8762L110.871 23.3897L103.384 23.3897Z" fill="#6E609F"/>
<path opacity="0.78" d="M103.494 34.9697L103.494 42.241L110.765 42.241L110.765 34.9697L103.494 34.9697Z" fill="#6E609F"/>
<path opacity="0.23" d="M103.727 46.6773L103.727 53.4779L110.528 53.4779L110.528 46.6773L103.727 46.6773Z" fill="#6E609F"/>
<path opacity="0.91" d="M103.854 58.2754L103.854 64.8242L110.403 64.8242L110.403 58.2754L103.854 58.2754Z" fill="#6E609F"/>
<path opacity="0.33" d="M104.157 70.049L104.157 75.9885L110.097 75.9885L110.097 70.049L104.157 70.049Z" fill="#6E609F"/>
<path opacity="0.46" d="M104.322 81.6835L104.322 87.2983L109.937 87.2983L109.937 81.6835L104.322 81.6835Z" fill="#6E609F"/>
<path opacity="0.71" d="M104.844 105.146L104.844 109.718L109.415 109.718L109.415 105.146L104.844 105.146Z" fill="#6E609F"/>
<path opacity="0.85" d="M105.113 128.361L105.113 132.392L109.145 132.392L109.145 128.361L105.113 128.361Z" fill="#6E609F"/>
<path opacity="0.31" d="M91.6801 0.215106L91.6801 8.16858L99.6336 8.16858L99.6336 0.215106L91.6801 0.215106Z" fill="#6E609F"/>
<path opacity="0.88" d="M91.7528 11.7548L91.7528 19.566L99.564 19.566L99.564 11.7548L91.7528 11.7548Z" fill="#6E609F"/>
<path opacity="0.83" d="M91.9498 23.426L91.9498 30.8395L99.3633 30.8395L99.3633 23.426L91.9498 23.426Z" fill="#6E609F"/>
<path opacity="0.19" d="M92.0596 35.0061L92.0596 42.2043L99.2578 42.2043L99.2578 35.0061L92.0596 35.0061Z" fill="#6E609F"/>
<path opacity="0.88" d="M92.4355 58.3266L92.4355 64.7697L98.8786 64.7697L98.8786 58.3266L92.4355 58.3266Z" fill="#6E609F"/>
<path opacity="0.89" d="M92.9023 81.7381L92.9023 87.2435L98.4077 87.2435L98.4077 81.7381L92.9023 81.7381Z" fill="#6E609F"/>
<path opacity="0.79" d="M93.4096 105.183L93.4096 109.681L97.9081 109.681L97.9081 105.183L93.4096 105.183Z" fill="#6E609F"/>
<path opacity="0.58" d="M93.6613 128.379L93.6613 132.374L97.6562 132.374L97.6562 128.379L93.6613 128.379Z" fill="#6E609F"/>
<path opacity="0.47" d="M94.0919 151.754L94.0919 154.885L97.2222 154.885L97.2222 151.754L94.0919 151.754Z" fill="#6E609F"/>
<path opacity="0.8" d="M80.2825 0.284389L80.2825 8.09558L88.0937 8.09558L88.0937 0.284389L80.2825 0.284389Z" fill="#6E609F"/>
<path opacity="0.3" d="M80.3703 11.8497L80.3703 19.4785L87.9991 19.4785L87.9991 11.8497L80.3703 11.8497Z" fill="#6E609F"/>
<path opacity="0.41" d="M80.5673 23.5173L80.5673 30.7521L87.802 30.7521L87.802 23.5173L80.5673 23.5173Z" fill="#6E609F"/>
<path opacity="0.54" d="M80.6766 35.0973L80.6766 42.1132L87.6924 42.1132L87.6924 35.0973L80.6766 35.0973Z" fill="#6E609F"/>
<path opacity="0.78" d="M80.9097 46.8014L80.9097 53.3502L87.4585 53.3502L87.4585 46.8014L80.9097 46.8014Z" fill="#6E609F"/>
<path opacity="0.74" d="M81.0741 58.4325L81.0741 64.6603L87.2982 64.6603L87.2982 58.4325L81.0741 58.4325Z" fill="#6E609F"/>
<path opacity="0.11" d="M81.3624 70.1911L81.3624 75.8424L87.0137 75.8424L87.0137 70.1911L81.3624 70.1911Z" fill="#6E609F"/>
<path opacity="0.59" d="M81.7749 93.5481L81.7749 98.3712L86.5981 98.3712L86.5981 93.5481L81.7749 93.5481Z" fill="#6E609F"/>
<path opacity="0.34" d="M82.0632 116.781L82.0632 121.028L86.3099 121.028L86.3099 116.781L82.0632 116.781Z" fill="#6E609F"/>
<path opacity="0.64" d="M82.4206 140.083L82.4206 143.611L85.9486 143.611L85.9486 140.083L82.4206 140.083Z" fill="#6E609F"/>
<path opacity="0.86" d="M68.8449 0.320864L68.8449 8.05908L76.5831 8.05908L76.5831 0.320863L68.8449 0.320864Z" fill="#6E609F"/>
<path opacity="0.57" d="M68.9542 11.901L68.9542 19.424L76.4771 19.4239L76.4771 11.901L68.9542 11.901Z" fill="#6E609F"/>
<path opacity="0.56" d="M69.1331 23.5538L69.1331 30.7156L76.2949 30.7156L76.2949 23.5538L69.1331 23.5538Z" fill="#6E609F"/>
<path opacity="0.74" d="M69.2605 35.1484L69.2605 42.0585L76.1705 42.0585L76.1705 35.1484L69.2605 35.1484Z" fill="#6E609F"/>
<path opacity="0.49" d="M69.6542 58.487L69.6542 64.6053L75.7726 64.6053L75.7726 58.487L69.6542 58.487Z" fill="#6E609F"/>
<path opacity="0.76" d="M70.0891 81.8623L70.0891 87.116L75.3428 87.116L75.3428 81.8623L70.0891 81.8623Z" fill="#6E609F"/>
<path opacity="0.11" d="M70.5378 105.256L70.5378 109.612L74.894 109.612L74.894 105.256L70.5378 105.256Z" fill="#6E609F"/>
<path opacity="0.33" d="M70.8626 128.522L70.8626 132.228L74.5694 132.228L74.5694 128.522L70.8626 128.522Z" fill="#6E609F"/>
<path opacity="0.37" d="M71.3654 151.97L71.3654 154.669L74.0652 154.669L74.0652 151.97L71.3654 151.97Z" fill="#6E609F"/>
<path opacity="0.3" d="M57.4832 0.430281L57.4832 7.95325L65.0062 7.95325L65.0062 0.43028L57.4832 0.430281Z" fill="#6E609F"/>
<path opacity="0.3" d="M57.5709 11.9921L57.5709 19.3326L64.9115 19.3326L64.9115 11.9921L57.5709 11.9921Z" fill="#6E609F"/>
<path opacity="0.2" d="M57.7867 23.6779L57.7867 30.5879L64.6968 30.5879L64.6968 23.6779L57.7867 23.6779Z" fill="#6E609F"/>
<path opacity="0.78" d="M57.8958 35.2577L57.8958 41.9525L64.5905 41.9525L64.5905 35.2577L57.8958 35.2577Z" fill="#6E609F"/>
<path opacity="0.55" d="M58.1662 46.9984L58.1662 53.1532L64.321 53.1532L64.321 46.9984L58.1662 46.9984Z" fill="#6E609F"/>
<path opacity="0.21" d="M58.3081 58.6148L58.3081 64.4814L64.1747 64.4814L64.1747 58.6148L58.3081 58.6148Z" fill="#6E609F"/>
<path opacity="0.16" d="M58.7061 81.9537L58.7061 87.0286L63.781 87.0286L63.781 81.9537L58.7061 81.9537Z" fill="#6E609F"/>
<path opacity="0.52" d="M59.1367 105.329L59.1367 109.539L63.347 109.539L63.347 105.329L59.1367 105.329Z" fill="#6E609F"/>
<path opacity="0.9" d="M46.0643 0.485042L46.0643 7.89856L53.4779 7.89856L53.4779 0.485041L46.0643 0.485042Z" fill="#6E609F"/>
<path opacity="0.85" d="M46.1556 12.0431L46.1556 19.2778L53.3903 19.2778L53.3903 12.0431L46.1556 12.0431Z" fill="#6E609F"/>
<path opacity="0.14" d="M46.4804 35.3126L46.4804 41.8979L53.0657 41.8979L53.0657 35.3126L46.4804 35.3126Z" fill="#6E609F"/>
<path opacity="0.64" d="M46.8198 58.5965L46.8198 64.4996L52.7229 64.4996L52.7229 58.5965L46.8198 58.5965Z" fill="#6E609F"/>
<path opacity="0.6" d="M47.2354 81.9534L47.2354 87.0283L52.3103 87.0283L52.3103 81.9534L47.2354 81.9534Z" fill="#6E609F"/>
<path opacity="0.25" d="M47.666 105.329L47.666 109.539L51.8763 109.539L51.8763 105.329L47.666 105.329Z" fill="#6E609F"/>
<path opacity="0.21" d="M48.1001 128.704L48.1001 132.05L51.4457 132.05L51.4457 128.704L48.1001 128.704Z" fill="#6E609F"/>
<path opacity="0.28" d="M48.6037 152.148L48.6037 154.487L50.9423 154.487L50.9423 152.148L48.6037 152.148Z" fill="#6E609F"/>
<path opacity="0.25" d="M34.5936 0.485042L34.5936 7.89856L42.0071 7.89856L42.0071 0.485041L34.5936 0.485042Z" fill="#6E609F"/>
<path opacity="0.14" d="M34.7034 12.0615L34.7034 19.2598L41.9016 19.2598L41.9016 12.0615L34.7034 12.0615Z" fill="#6E609F"/>
<path opacity="0.18" d="M34.9368 23.7691L34.9368 30.5004L41.668 30.5004L41.668 23.7691L34.9368 23.7691Z" fill="#6E609F"/>
<path opacity="0.63" d="M35.0428 35.349L35.0428 41.8613L41.5552 41.8613L41.5552 35.349L35.0428 35.349Z" fill="#6E609F"/>
<path opacity="0.65" d="M35.2937 47.0713L35.2937 53.0802L41.3026 53.0802L41.3026 47.0713L35.2937 47.0713Z" fill="#6E609F"/>
<path opacity="0.93" d="M35.4037 58.6513L35.4037 64.4449L41.1973 64.4449L41.1973 58.6513L35.4037 58.6513Z" fill="#6E609F"/>
<path opacity="0.55" d="M35.7651 81.9534L35.7651 87.0283L40.84 87.0283L40.84 81.9534L35.7651 81.9534Z" fill="#6E609F"/>
<path opacity="0.35" d="M36.2133 105.347L36.2133 109.521L40.387 109.521L40.387 105.347L36.2133 105.347Z" fill="#6E609F"/>
<path opacity="0.48" d="M23.1053 0.466753L23.1053 7.91675L30.5553 7.91675L30.5553 0.466753L23.1053 0.466753Z" fill="#6E609F"/>
<path opacity="0.88" d="M23.2104 12.043L23.2104 19.2777L30.4451 19.2777L30.4451 12.043L23.2104 12.043Z" fill="#6E609F"/>
<path opacity="0.16" d="M23.5535 35.3308L23.5535 41.8796L30.1023 41.8796L30.1023 35.3308L23.5535 35.3308Z" fill="#6E609F"/>
<path opacity="0.56" d="M23.8969 58.6148L23.8969 64.4814L29.7635 64.4814L29.7635 58.6148L23.8969 58.6148Z" fill="#6E609F"/>
<path opacity="0.47" d="M24.0939 70.286L24.0939 75.7549L29.5628 75.7549L29.5628 70.286L24.0939 70.286Z" fill="#6E609F"/>
<path opacity="0.74" d="M24.4182 93.5481L24.4182 98.3712L29.2414 98.3712L29.2414 93.5481L24.4182 93.5481Z" fill="#6E609F"/>
<path opacity="0.2" d="M24.8123 116.887L24.8123 120.918L28.8437 120.918L28.8437 116.887L24.8123 116.887Z" fill="#6E609F"/>
<path opacity="0.73" d="M25.3015 140.32L25.3015 143.378L28.3589 143.378L28.3589 140.32L25.3015 140.32Z" fill="#6E609F"/>
<path opacity="0.39" d="M11.5614 0.397459L11.5614 7.98975L19.1537 7.98975L19.1537 0.397459L11.5614 0.397459Z" fill="#6E609F"/>
<path opacity="0.76" d="M11.6346 11.9373L11.6346 19.3873L19.0846 19.3873L19.0846 11.9373L11.6346 11.9373Z" fill="#6E609F"/>
<path opacity="0.17" d="M11.8316 23.6086L11.8316 30.6609L18.8839 30.6609L18.8839 23.6086L11.8316 23.6086Z" fill="#6E609F"/>
<path opacity="0.93" d="M11.9371 35.1886L11.9371 42.0256L18.7742 42.0256L18.7742 35.1886L11.9371 35.1886Z" fill="#6E609F"/>
<path opacity="0.8" d="M12.1013 46.8195L12.1013 53.3319L18.6136 53.3319L18.6136 46.8195L12.1013 46.8195Z" fill="#6E609F"/>
<path opacity="0.41" d="M12.39 70.0488L12.39 75.9884L18.3296 75.9884L18.3296 70.0488L12.39 70.0488Z" fill="#6E609F"/>
<path opacity="0.8" d="M12.4953 81.6325L12.4953 87.3531L18.216 87.3531L18.216 81.6325L12.4953 81.6325Z" fill="#6E609F"/>
<path opacity="0.76" d="M12.948 105.022L12.948 109.845L17.7712 109.845L17.7712 105.022L12.948 105.022Z" fill="#6E609F"/>
<path opacity="0.53" d="M13.3604 128.379L13.3604 132.374L17.3553 132.374L17.3553 128.379L13.3604 128.379Z" fill="#6E609F"/>
<path opacity="0.38" d="M13.7761 151.736L13.7761 154.903L16.9429 154.903L16.9429 151.736L13.7761 151.736Z" fill="#6E609F"/>
<path opacity="0.53" d="M-0.00012241 0.302687L-0.00012207 8.07739L7.77459 8.07739L7.77459 0.302686L-0.00012241 0.302687Z" fill="#6E609F"/>
<path opacity="0.56" d="M0.0545651 11.8316L0.0545654 19.4968L7.71983 19.4968L7.71983 11.8316L0.0545651 11.8316Z" fill="#6E609F"/>
<path opacity="0.9" d="M0.214965 23.4626L0.214966 30.8031L7.55552 30.8031L7.55552 23.4626L0.214965 23.4626Z" fill="#6E609F"/>
<path opacity="0.79" d="M0.306213 35.0243L0.306213 42.186L7.468 42.186L7.46799 35.0243L0.306213 35.0243Z" fill="#6E609F"/>
<path opacity="0.37" d="M0.466613 46.6589L0.466614 53.496L7.30369 53.496L7.30369 46.6589L0.466613 46.6589Z" fill="#6E609F"/>
<path opacity="0.56" d="M0.557861 58.2171L0.557861 64.8754L7.21617 64.8754L7.21617 58.2171L0.557861 58.2171Z" fill="#6E609F"/>
<path opacity="0.36" d="M0.84613 81.45L0.84613 87.5319L6.92799 87.5319L6.92799 81.45L0.84613 81.45Z" fill="#6E609F"/>
<path opacity="0.9" d="M1.04315 93.1175L1.04315 98.8053L6.73099 98.8053L6.73099 93.1175L1.04315 93.1175Z" fill="#6E609F"/>
<path opacity="0.24" d="M1.36798 116.383L1.36798 121.422L6.4064 121.422L6.4064 116.383L1.36798 116.383Z" fill="#6E609F"/>
<path opacity="0.98" d="M1.74396 139.704L1.74396 143.987L6.02716 143.987L6.02716 139.704L1.74396 139.704Z" fill="#6E609F"/>
</g>
</svg>
